<svg width="1220" height="311" viewBox="0 0 1220 311" fill="none" xmlns="http://www.w3.org/2000/svg">
<path d="M43.9662 207.213C42.1737 190.158 41.2774 181.631 41.8326 174.385C44.372 141.24 67.1439 113.119 99.0366 103.744C106.009 101.694 114.536 100.798 131.591 99.0053L1051.66 2.30206C1068.72 0.509535 1077.24 -0.386726 1084.49 0.168443C1117.63 2.70788 1145.75 25.4798 1155.13 57.3725C1157.18 64.3448 1158.08 72.8722 1159.87 89.9268C1161.66 106.981 1162.56 115.509 1162 122.755C1159.46 155.9 1136.69 184.021 1104.8 193.396C1097.83 195.446 1089.3 196.342 1072.24 198.134L152.174 294.838C135.119 296.63 126.592 297.526 119.346 296.971C86.2007 294.432 58.0797 271.66 48.7045 239.767C46.6549 232.795 45.7587 224.267 43.9662 207.213Z" fill="#C4BCF5"/>
<g filter="url(#filter0_d_1346_63)">
<rect x="22" y="25" width="1160" height="248" rx="100" fill="#644FE4"/>
<rect x="23" y="26" width="1158" height="246" rx="99" stroke="#DFE3F5" stroke-width="2"/>
</g>
<defs>
<filter id="filter0_d_1346_63" x="0" y="3" width="1220" height="308" filterUnits="userSpaceOnUse" color-interpolation-filters="sRGB">
<feFlood flood-opacity="0" result="BackgroundImageFix"/>
<feColorMatrix in="SourceAlpha" type="matrix" values="0 0 0 0 0 0 0 0 0 0 0 0 0 0 0 0 0 0 127 0" result="hardAlpha"/>
<feOffset dx="8" dy="8"/>
<feGaussianBlur stdDeviation="15"/>
<feComposite in2="hardAlpha" operator="out"/>
<feColorMatrix type="matrix" values="0 0 0 0 0.00421132 0 0 0 0 0.135669 0 0 0 0 0.601746 0 0 0 0.25 0"/>
<feBlend mode="normal" in2="BackgroundImageFix" result="effect1_dropShadow_1346_63"/>
<feBlend mode="normal" in="SourceGraphic" in2="effect1_dropShadow_1346_63" result="shape"/>
</filter>
</defs>
</svg>
