<svg width="48" height="48" viewBox="0 0 48 48" fill="none" xmlns="http://www.w3.org/2000/svg">
<path d="M38 31H33M44 19L4 19M3.39786 33.2097C3.64378 35.7055 5.65642 37.4983 8.16062 37.6354C11.3823 37.8118 16.5622 38 24 38C31.4378 38 36.6177 37.8118 39.8394 37.6354C42.3436 37.4983 44.3562 35.7056 44.6021 33.2097C44.8138 31.0613 45 28.0271 45 24C45 19.9729 44.8138 16.9387 44.6021 14.7903C44.3562 12.2945 42.3436 10.5017 39.8394 10.3646C36.6177 10.1882 31.4378 10 24 10C16.5622 10 11.3823 10.1882 8.16062 10.3646C5.65642 10.5017 3.64378 12.2945 3.39786 14.7903C3.18617 16.9387 3 19.9729 3 24C3 28.0271 3.18617 31.0613 3.39786 33.2097Z" stroke="#644FE4" stroke-width="3" stroke-linecap="round" stroke-linejoin="round"/>
</svg>
