<svg width="433" height="264" viewBox="0 0 433 264" fill="none" xmlns="http://www.w3.org/2000/svg">
<rect x="20.9282" width="376" height="264" rx="48" fill="url(#paint0_linear_1296_342)"/>
<rect x="20.9282" width="376" height="264" rx="48" fill="#644FE4"/>
<g filter="url(#filter0_d_1296_342)">
<rect x="19.4226" width="391.899" height="90.6461" rx="28.3269" transform="rotate(6.59436 19.4226 0)" fill="#DBD7EC" shape-rendering="crispEdges"/>
<rect x="19.4226" width="391.899" height="90.6461" rx="28.3269" transform="rotate(6.59436 19.4226 0)" fill="url(#paint1_linear_1296_342)" fill-opacity="0.2" shape-rendering="crispEdges"/>
<g clip-path="url(#clip0_1296_342)">
<path d="M49.937 32.0432L94.9602 37.248L91.0565 71.0154L46.0334 65.8105L49.937 32.0432Z" fill="#003399"/>
<path d="M71.8281 40.0184L71.1351 41.6281L71.9496 41.8912L71.8281 40.0184Z" fill="#FFCC00"/>
<path d="M71.8279 40.0183L72.1354 41.7437L71.2823 41.8141L71.8279 40.0183Z" fill="#FFCC00"/>
<path d="M73.2817 41.3539L71.5366 41.1922L71.5381 42.0481L73.2817 41.3539Z" fill="#FFCC00"/>
<path d="M73.2815 41.354L71.7356 42.1796L71.4051 41.39L73.2815 41.354Z" fill="#FFCC00"/>
<path d="M72.46 43.1481L72.0745 41.4385L71.2609 41.7044L72.46 43.1481Z" fill="#FFCC00"/>
<path d="M72.4602 43.1481L71.1973 41.933L71.8461 41.3747L72.4602 43.1481Z" fill="#FFCC00"/>
<path d="M70.1097 40.987L71.8457 41.2277L71.649 42.0607L70.1097 40.987Z" fill="#FFCC00"/>
<path d="M70.1102 40.9869L71.427 42.1435L71.9289 41.4501L70.1102 40.9869Z" fill="#FFCC00"/>
<path d="M70.4996 42.9214L71.265 41.3448L71.9965 41.7893L70.4996 42.9214Z" fill="#FFCC00"/>
<path d="M70.4996 42.9214L72.0065 42.0265L71.5022 41.3348L70.4996 42.9214Z" fill="#FFCC00"/>
<path d="M69.5147 60.029L68.8216 61.6387L69.6361 61.9018L69.5147 60.029Z" fill="#FFCC00"/>
<path d="M69.5144 60.0285L69.8219 61.7539L68.9688 61.8243L69.5144 60.0285Z" fill="#FFCC00"/>
<path d="M70.9675 61.364L69.2224 61.2023L69.2239 62.0583L70.9675 61.364Z" fill="#FFCC00"/>
<path d="M70.9673 61.3641L69.4214 62.1897L69.0909 61.4001L70.9673 61.3641Z" fill="#FFCC00"/>
<path d="M70.146 63.1582L69.7605 61.4486L68.9469 61.7144L70.146 63.1582Z" fill="#FFCC00"/>
<path d="M70.1462 63.1583L68.8833 61.9432L69.5321 61.3848L70.1462 63.1583Z" fill="#FFCC00"/>
<path d="M67.7955 60.9976L69.5315 61.2383L69.3348 62.0713L67.7955 60.9976Z" fill="#FFCC00"/>
<path d="M67.7958 60.9975L69.1125 62.1541L69.6145 61.4608L67.7958 60.9975Z" fill="#FFCC00"/>
<path d="M68.1854 62.9321L68.9508 61.3556L69.6823 61.8L68.1854 62.9321Z" fill="#FFCC00"/>
<path d="M68.1857 62.932L69.6925 62.0371L69.1882 61.3455L68.1857 62.932Z" fill="#FFCC00"/>
<path d="M60.6668 48.8672L59.9737 50.4769L60.7882 50.74L60.6668 48.8672Z" fill="#FFCC00"/>
<path d="M60.667 48.8668L60.9745 50.5921L60.1214 50.6625L60.667 48.8668Z" fill="#FFCC00"/>
<path d="M62.1199 50.2023L60.3748 50.0406L60.3762 50.8965L62.1199 50.2023Z" fill="#FFCC00"/>
<path d="M62.1201 50.2025L60.5742 51.0281L60.2437 50.2386L62.1201 50.2025Z" fill="#FFCC00"/>
<path d="M61.2979 51.9968L60.9124 50.2871L60.0988 50.553L61.2979 51.9968Z" fill="#FFCC00"/>
<path d="M61.2978 51.997L60.0349 50.7819L60.6837 50.2236L61.2978 51.997Z" fill="#FFCC00"/>
<path d="M58.9471 49.8356L60.6831 50.0763L60.4864 50.9094L58.9471 49.8356Z" fill="#FFCC00"/>
<path d="M58.9471 49.8356L60.2639 50.9921L60.7658 50.2988L58.9471 49.8356Z" fill="#FFCC00"/>
<path d="M59.3368 51.77L60.1022 50.1935L60.8337 50.6379L59.3368 51.77Z" fill="#FFCC00"/>
<path d="M59.3368 51.7701L60.8436 50.8752L60.3394 50.1835L59.3368 51.7701Z" fill="#FFCC00"/>
<path d="M65.4554 43.7734L66.9623 42.8785L66.458 42.1869L65.4554 43.7734Z" fill="#FFCC00"/>
<path d="M65.455 43.7733L66.2203 42.1967L66.9518 42.6412L65.455 43.7733Z" fill="#FFCC00"/>
<path d="M65.0653 41.839L66.3821 42.9955L66.884 42.3022L65.0653 41.839Z" fill="#FFCC00"/>
<path d="M65.0651 41.839L66.801 42.0797L66.6043 42.9128L65.0651 41.839Z" fill="#FFCC00"/>
<path d="M66.7844 40.8701L66.0914 42.4798L66.9059 42.7429L66.7844 40.8701Z" fill="#FFCC00"/>
<path d="M66.7849 40.87L67.0924 42.5953L66.2393 42.6657L66.7849 40.87Z" fill="#FFCC00"/>
<path d="M67.4155 43.9998L66.1526 42.7846L66.8014 42.2263L67.4155 43.9998Z" fill="#FFCC00"/>
<path d="M67.4163 43.9999L67.0308 42.2903L66.2172 42.5561L67.4163 43.9999Z" fill="#FFCC00"/>
<path d="M68.2371 42.2056L66.6912 43.0312L66.3607 42.2416L68.2371 42.2056Z" fill="#FFCC00"/>
<path d="M68.2373 42.2057L66.4922 42.0441L66.4936 42.9L68.2373 42.2057Z" fill="#FFCC00"/>
<path d="M63.2786 47.2805L62.8931 45.5708L62.0795 45.8367L63.2786 47.2805Z" fill="#FFCC00"/>
<path d="M63.2783 47.2804L62.0154 46.0653L62.6642 45.507L63.2783 47.2804Z" fill="#FFCC00"/>
<path d="M61.3178 47.054L62.8246 46.1591L62.3203 45.4675L61.3178 47.054Z" fill="#FFCC00"/>
<path d="M61.3175 47.0538L62.0829 45.4773L62.8144 45.9217L61.3175 47.0538Z" fill="#FFCC00"/>
<path d="M60.9281 45.1194L62.2448 46.2759L62.7468 45.5826L60.9281 45.1194Z" fill="#FFCC00"/>
<path d="M60.9279 45.1196L62.6638 45.3603L62.4671 46.1933L60.9279 45.1196Z" fill="#FFCC00"/>
<path d="M64.0994 45.4863L62.5535 46.3119L62.223 45.5223L64.0994 45.4863Z" fill="#FFCC00"/>
<path d="M64.0993 45.4861L62.3543 45.3244L62.3557 46.1804L64.0993 45.4861Z" fill="#FFCC00"/>
<path d="M62.6465 44.1508L62.954 45.8761L62.1009 45.9465L62.6465 44.1508Z" fill="#FFCC00"/>
<path d="M62.6465 44.1508L61.9535 45.7605L62.768 46.0237L62.6465 44.1508Z" fill="#FFCC00"/>
<path d="M62.9424 55.5157L61.1973 55.3541L61.1987 56.21L62.9424 55.5157Z" fill="#FFCC00"/>
<path d="M62.9417 55.5156L61.3958 56.3412L61.0653 55.5517L62.9417 55.5156Z" fill="#FFCC00"/>
<path d="M62.1201 57.3098L61.7346 55.6001L60.921 55.866L62.1201 57.3098Z" fill="#FFCC00"/>
<path d="M62.1199 57.3096L60.857 56.0945L61.5057 55.5362L62.1199 57.3096Z" fill="#FFCC00"/>
<path d="M60.1605 57.0829L61.6674 56.188L61.1631 55.4963L60.1605 57.0829Z" fill="#FFCC00"/>
<path d="M60.1603 57.0831L60.9257 55.5066L61.6571 55.951L60.1603 57.0831Z" fill="#FFCC00"/>
<path d="M61.489 54.1798L61.7965 55.9052L60.9434 55.9756L61.489 54.1798Z" fill="#FFCC00"/>
<path d="M61.489 54.18L60.796 55.7897L61.6105 56.0528L61.489 54.18Z" fill="#FFCC00"/>
<path d="M59.7701 55.1489L61.5061 55.3897L61.3094 56.2227L59.7701 55.1489Z" fill="#FFCC00"/>
<path d="M59.7699 55.1488L61.0866 56.3054L61.5886 55.6121L59.7699 55.1488Z" fill="#FFCC00"/>
<path d="M66.1726 59.2906L64.4275 59.1289L64.4289 59.9848L66.1726 59.2906Z" fill="#FFCC00"/>
<path d="M66.1724 59.2904L64.6265 60.116L64.296 59.3265L66.1724 59.2904Z" fill="#FFCC00"/>
<path d="M65.3513 61.0847L64.9658 59.375L64.1522 59.6409L65.3513 61.0847Z" fill="#FFCC00"/>
<path d="M65.3516 61.0847L64.0887 59.8695L64.7374 59.3112L65.3516 61.0847Z" fill="#FFCC00"/>
<path d="M63.3908 60.8579L64.8976 59.963L64.3933 59.2714L63.3908 60.8579Z" fill="#FFCC00"/>
<path d="M63.3907 60.8579L64.1561 59.2813L64.8876 59.7258L63.3907 60.8579Z" fill="#FFCC00"/>
<path d="M64.72 57.9549L65.0274 59.6802L64.1744 59.7506L64.72 57.9549Z" fill="#FFCC00"/>
<path d="M64.7202 57.955L64.0272 59.5647L64.8417 59.8278L64.7202 57.955Z" fill="#FFCC00"/>
<path d="M63.0006 58.9237L64.7365 59.1645L64.5399 59.9975L63.0006 58.9237Z" fill="#FFCC00"/>
<path d="M63.0008 58.9237L64.3176 60.0802L64.8196 59.3869L63.0008 58.9237Z" fill="#FFCC00"/>
<path d="M80.6767 51.1797L80.9842 52.9051L80.1312 52.9754L80.6767 51.1797Z" fill="#FFCC00"/>
<path d="M80.6765 51.1797L79.9835 52.7894L80.798 53.0526L80.6765 51.1797Z" fill="#FFCC00"/>
<path d="M78.9574 52.1487L80.6933 52.3894L80.4967 53.2225L78.9574 52.1487Z" fill="#FFCC00"/>
<path d="M78.9574 52.1487L80.2741 53.3053L80.7761 52.612L78.9574 52.1487Z" fill="#FFCC00"/>
<path d="M79.3475 54.0833L80.1129 52.5067L80.8444 52.9512L79.3475 54.0833Z" fill="#FFCC00"/>
<path d="M79.3475 54.0833L80.8544 53.1884L80.3501 52.4968L79.3475 54.0833Z" fill="#FFCC00"/>
<path d="M82.1303 52.5155L80.3853 52.3538L80.3867 53.2097L82.1303 52.5155Z" fill="#FFCC00"/>
<path d="M82.1297 52.5156L80.5838 53.3412L80.2532 52.5516L82.1297 52.5156Z" fill="#FFCC00"/>
<path d="M81.3086 54.3098L80.9231 52.6002L80.1095 52.8661L81.3086 54.3098Z" fill="#FFCC00"/>
<path d="M81.3083 54.3099L80.0454 53.0948L80.6942 52.5364L81.3083 54.3099Z" fill="#FFCC00"/>
<path d="M77.176 45.1283L75.9131 43.9132L76.5619 43.3549L77.176 45.1283Z" fill="#FFCC00"/>
<path d="M77.1758 45.1284L76.7903 43.4187L75.9767 43.6846L77.1758 45.1284Z" fill="#FFCC00"/>
<path d="M77.9978 43.3338L76.4519 44.1594L76.1214 43.3699L77.9978 43.3338Z" fill="#FFCC00"/>
<path d="M77.9975 43.3339L76.2525 43.1722L76.2539 44.0281L77.9975 43.3339Z" fill="#FFCC00"/>
<path d="M76.5452 41.9984L76.8526 43.7238L75.9996 43.7942L76.5452 41.9984Z" fill="#FFCC00"/>
<path d="M76.5449 41.9986L75.8519 43.6083L76.6664 43.8714L76.5449 41.9986Z" fill="#FFCC00"/>
<path d="M75.215 44.9015L76.7218 44.0066L76.2175 43.315L75.215 44.9015Z" fill="#FFCC00"/>
<path d="M75.215 44.9014L75.9803 43.3248L76.7118 43.7693L75.215 44.9014Z" fill="#FFCC00"/>
<path d="M74.8246 42.9671L76.1413 44.1236L76.6433 43.4303L74.8246 42.9671Z" fill="#FFCC00"/>
<path d="M74.8246 42.9669L76.5605 43.2077L76.3638 44.0407L74.8246 42.9669Z" fill="#FFCC00"/>
<path d="M78.4955 49.0394L79.2609 47.4628L79.9923 47.9073L78.4955 49.0394Z" fill="#FFCC00"/>
<path d="M78.4955 49.0394L80.0023 48.1444L79.4981 47.4528L78.4955 49.0394Z" fill="#FFCC00"/>
<path d="M80.4556 49.2661L79.1927 48.051L79.8414 47.4927L80.4556 49.2661Z" fill="#FFCC00"/>
<path d="M80.4548 49.2661L80.0694 47.5565L79.2558 47.8224L80.4548 49.2661Z" fill="#FFCC00"/>
<path d="M81.2774 47.4719L79.7315 48.2975L79.4009 47.5079L81.2774 47.4719Z" fill="#FFCC00"/>
<path d="M81.2773 47.472L79.5323 47.3103L79.5337 48.1662L81.2773 47.472Z" fill="#FFCC00"/>
<path d="M78.1049 47.1051L79.4216 48.2616L79.9236 47.5683L78.1049 47.1051Z" fill="#FFCC00"/>
<path d="M78.1049 47.1052L79.8408 47.346L79.6441 48.179L78.1049 47.1052Z" fill="#FFCC00"/>
<path d="M79.8245 46.1362L79.1314 47.7459L79.9459 48.009L79.8245 46.1362Z" fill="#FFCC00"/>
<path d="M79.8249 46.1361L80.1324 47.8615L79.2794 47.9319L79.8249 46.1361Z" fill="#FFCC00"/>
<path d="M76.9447 57.1342L78.6806 57.3749L78.484 58.2079L76.9447 57.1342Z" fill="#FFCC00"/>
<path d="M76.9447 57.1341L78.2614 58.2906L78.7634 57.5973L76.9447 57.1341Z" fill="#FFCC00"/>
<path d="M77.3346 59.0686L78.1 57.492L78.8315 57.9365L77.3346 59.0686Z" fill="#FFCC00"/>
<path d="M77.3348 59.0688L78.8417 58.1739L78.3374 57.4822L77.3348 59.0688Z" fill="#FFCC00"/>
<path d="M79.2954 59.2952L78.0325 58.0801L78.6813 57.5217L79.2954 59.2952Z" fill="#FFCC00"/>
<path d="M79.2957 59.2949L78.9102 57.5853L78.0966 57.8512L79.2957 59.2949Z" fill="#FFCC00"/>
<path d="M78.6643 56.1652L77.9713 57.7749L78.7858 58.038L78.6643 56.1652Z" fill="#FFCC00"/>
<path d="M78.6643 56.1651L78.9718 57.8904L78.1187 57.9608L78.6643 56.1651Z" fill="#FFCC00"/>
<path d="M80.1174 57.5008L78.3723 57.3391L78.3738 58.195L80.1174 57.5008Z" fill="#FFCC00"/>
<path d="M80.1179 57.5007L78.572 58.3263L78.2415 57.5368L80.1179 57.5007Z" fill="#FFCC00"/>
<path d="M72.9371 60.0722L74.6731 60.313L74.4764 61.146L72.9371 60.0722Z" fill="#FFCC00"/>
<path d="M72.9369 60.0719L74.2536 61.2285L74.7556 60.5352L72.9369 60.0719Z" fill="#FFCC00"/>
<path d="M73.3285 62.0065L74.0939 60.4299L74.8254 60.8744L73.3285 62.0065Z" fill="#FFCC00"/>
<path d="M73.3287 62.0065L74.8356 61.1115L74.3313 60.4199L73.3287 62.0065Z" fill="#FFCC00"/>
<path d="M75.2893 62.233L74.0264 61.0179L74.6752 60.4595L75.2893 62.233Z" fill="#FFCC00"/>
<path d="M75.2898 62.233L74.9043 60.5234L74.0907 60.7893L75.2898 62.233Z" fill="#FFCC00"/>
<path d="M74.657 59.1034L73.964 60.7131L74.7785 60.9762L74.657 59.1034Z" fill="#FFCC00"/>
<path d="M74.657 59.1033L74.9645 60.8287L74.1114 60.899L74.657 59.1033Z" fill="#FFCC00"/>
<path d="M76.1098 60.4388L74.3648 60.2771L74.3662 61.133L76.1098 60.4388Z" fill="#FFCC00"/>
<path d="M76.1101 60.4387L74.5642 61.2643L74.2337 60.4747L76.1101 60.4387Z" fill="#FFCC00"/>
</g>
<path d="M119.375 55.1246L116.093 54.7451C116.082 54.3135 116.003 53.9221 115.856 53.571C115.71 53.2148 115.506 52.9026 115.243 52.6343C114.981 52.366 114.667 52.1474 114.301 51.9786C113.941 51.8104 113.541 51.7008 113.101 51.65C112.307 51.5582 111.592 51.6755 110.957 52.0021C110.322 52.3236 109.799 52.8404 109.388 53.5523C108.977 54.2592 108.71 55.1448 108.587 56.209C108.461 57.3032 108.517 58.2413 108.755 59.0233C108.999 59.8059 109.394 60.4211 109.939 60.869C110.485 61.3169 111.145 61.5856 111.92 61.6751C112.354 61.7253 112.763 61.7144 113.146 61.6422C113.534 61.5706 113.886 61.4416 114.201 61.2553C114.517 61.064 114.788 60.8194 115.015 60.5216C115.247 60.2243 115.424 59.8752 115.546 59.4742L118.827 59.8686C118.661 60.5633 118.37 61.2183 117.954 61.8335C117.544 62.4443 117.025 62.9741 116.396 63.4229C115.772 63.8673 115.051 64.194 114.232 64.4031C113.419 64.6078 112.52 64.6532 111.535 64.5394C110.166 64.3812 108.978 63.9299 107.97 63.1856C106.968 62.4418 106.222 61.4468 105.733 60.2005C105.25 58.9547 105.104 57.4974 105.297 55.8286C105.49 54.1549 105.97 52.7673 106.735 51.6659C107.5 50.5645 108.458 49.769 109.608 49.2792C110.759 48.7844 112.009 48.615 113.358 48.7709C114.248 48.8737 115.058 49.094 115.788 49.4316C116.524 49.7698 117.159 50.2128 117.693 50.7606C118.227 51.3034 118.64 51.9409 118.93 52.6731C119.225 53.406 119.373 54.2231 119.375 55.1246ZM119.709 65.2717L119.987 62.7368L120.369 62.781C120.639 62.8122 120.879 62.7741 121.089 62.6667C121.304 62.5549 121.494 62.3567 121.659 62.0719C121.823 61.7871 121.972 61.4018 122.104 60.9158C122.237 60.4248 122.358 59.816 122.467 59.0895L123.243 54.0148L131.997 55.0268L130.666 66.5384L127.624 66.1866L128.664 57.1857L125.824 56.8573L125.237 60.3515C125.081 61.3106 124.868 62.1264 124.598 62.799C124.332 63.4721 124.009 64.0119 123.628 64.4185C123.247 64.82 122.813 65.0989 122.324 65.255C121.835 65.4111 121.283 65.4537 120.669 65.3826L119.709 65.2717ZM138.211 67.6385C137.047 67.5039 136.069 67.1402 135.277 66.5473C134.49 65.9501 133.918 65.1802 133.561 64.2377C133.205 63.2902 133.095 62.2269 133.231 61.0478C133.369 59.8586 133.719 58.846 134.281 58.0098C134.844 57.1686 135.577 56.5494 136.478 56.1524C137.385 55.751 138.421 55.6175 139.585 55.7521C140.749 55.8867 141.725 56.2526 142.511 56.8499C143.304 57.4427 143.878 58.2129 144.234 59.1603C144.591 60.1028 144.701 61.1686 144.563 62.3578C144.427 63.5369 144.077 64.5471 143.514 65.3883C142.952 66.2245 142.217 66.8433 141.31 67.2448C140.408 67.6418 139.375 67.773 138.211 67.6385ZM138.512 65.167C139.042 65.2282 139.501 65.1294 139.89 64.8707C140.28 64.6069 140.596 64.2231 140.836 63.7193C141.082 63.216 141.243 62.6297 141.321 61.9601C141.398 61.2906 141.375 60.6829 141.25 60.1369C141.131 59.5915 140.912 59.1459 140.592 58.8001C140.273 58.4543 139.848 58.2508 139.319 58.1896C138.784 58.1278 138.317 58.2282 137.917 58.4908C137.522 58.754 137.202 59.1372 136.956 59.6404C136.715 60.1443 136.557 60.7309 136.479 61.4004C136.402 62.07 136.423 62.6774 136.542 63.2228C136.666 63.7688 136.89 64.215 137.215 64.5614C137.545 64.9033 137.977 65.1052 138.512 65.167ZM145.873 68.2964L147.204 56.7848L152.113 57.3523C153.532 57.5163 154.623 57.9158 155.385 58.5507C156.147 59.1856 156.47 60.0002 156.355 60.9945C156.283 61.619 155.991 62.1118 155.478 62.4728C154.965 62.8338 154.289 63.039 153.447 63.0886C154.131 63.2183 154.7 63.4436 155.154 63.7644C155.614 64.0808 155.947 64.4611 156.154 64.9053C156.366 65.35 156.442 65.8247 156.384 66.3293C156.308 66.9838 156.069 67.5257 155.664 67.9549C155.265 68.3847 154.717 68.6858 154.018 68.8583C153.325 69.0313 152.499 69.0623 151.539 68.9514L145.873 68.2964ZM149.125 66.2496L151.816 66.5606C152.26 66.6121 152.62 66.5473 152.894 66.3663C153.173 66.1809 153.335 65.9034 153.377 65.5336C153.425 65.1239 153.335 64.7869 153.107 64.5227C152.884 64.2589 152.551 64.1014 152.106 64.05L149.415 63.7389L149.125 66.2496ZM149.632 61.8653L151.633 62.0966C151.953 62.1336 152.23 62.1201 152.465 62.0562C152.706 61.9878 152.897 61.8731 153.037 61.7121C153.182 61.5517 153.268 61.3516 153.296 61.1117C153.337 60.757 153.227 60.4632 152.965 60.2304C152.703 59.9977 152.325 59.8527 151.831 59.7955L149.897 59.572L149.632 61.8653ZM161.185 70.2868C160.451 70.2019 159.811 69.9988 159.266 69.6775C158.721 69.3513 158.311 68.9165 158.034 68.3732C157.764 67.8255 157.672 67.1719 157.76 66.4124C157.834 65.7729 158.013 65.2493 158.298 64.8418C158.583 64.4343 158.944 64.1215 159.379 63.9035C159.814 63.6854 160.297 63.5387 160.827 63.4633C161.362 63.3885 161.918 63.3565 162.494 63.3674C163.172 63.3749 163.719 63.3723 164.135 63.3597C164.553 63.3421 164.861 63.2815 165.06 63.178C165.259 63.0745 165.373 62.9003 165.402 62.6555L165.407 62.6105C165.462 62.1358 165.354 61.7513 165.084 61.4568C164.82 61.1629 164.415 60.9845 163.87 60.9215C163.296 60.8551 162.824 60.9297 162.455 61.1452C162.086 61.3557 161.825 61.6445 161.671 62.0115L158.746 61.4304C158.977 60.7482 159.341 60.1777 159.84 59.7189C160.339 59.2551 160.952 58.926 161.678 58.7314C162.41 58.5325 163.235 58.4862 164.155 58.5925C164.794 58.6664 165.398 58.8121 165.965 59.0296C166.537 59.2476 167.032 59.5403 167.451 59.9076C167.874 60.2756 168.19 60.7221 168.397 61.2474C168.605 61.7676 168.67 62.37 168.591 63.0545L167.693 70.8189L164.665 70.4688L164.85 68.8725L164.76 68.8621C164.534 69.2005 164.25 69.4891 163.908 69.7281C163.567 69.9621 163.17 70.1314 162.718 70.2361C162.266 70.3357 161.755 70.3526 161.185 70.2868ZM162.354 68.1891C162.824 68.2434 163.249 68.1989 163.63 68.0556C164.012 67.9073 164.324 67.6851 164.566 67.3891C164.808 67.093 164.952 66.7426 164.999 66.3379L165.14 65.1163C165.032 65.1697 164.888 65.2137 164.707 65.2485C164.531 65.2788 164.333 65.304 164.113 65.3242C163.894 65.3393 163.675 65.3519 163.456 65.3621C163.237 65.3672 163.039 65.3722 162.862 65.3769C162.481 65.3886 162.143 65.4382 161.85 65.5257C161.556 65.6133 161.32 65.7506 161.141 65.9375C160.963 66.1195 160.857 66.3603 160.822 66.6601C160.772 67.0948 160.891 67.4452 161.179 67.7115C161.473 67.9733 161.865 68.1325 162.354 68.1891ZM181.386 60.7363L180.055 72.2479L177.027 71.8979L178.358 60.3863L181.386 60.7363ZM179.325 65.6169L179.034 68.1351C178.777 68.2167 178.46 68.2864 178.083 68.3442C177.708 68.3969 177.316 68.4302 176.91 68.444C176.503 68.4577 176.125 68.4444 175.775 68.4039C174.121 68.2127 172.859 67.7225 171.988 66.9333C171.118 66.139 170.77 64.9925 170.943 63.4935L171.397 59.5664L174.41 59.9147L173.956 63.8418C173.904 64.2865 173.939 64.6474 174.059 64.9246C174.183 65.2023 174.407 65.4179 174.728 65.5716C175.055 65.7208 175.501 65.828 176.066 65.8933C176.59 65.9539 177.111 65.9584 177.628 65.9069C178.146 65.8553 178.711 65.7586 179.325 65.6169ZM185.965 68.663L190.954 61.8424L194.101 62.2063L192.771 73.7179L189.728 73.3662L190.574 66.044L185.598 72.8888L182.428 72.5223L183.759 61.0107L186.809 61.3633L185.965 68.663ZM204.049 67.8979L203.759 70.4086L197.748 69.7137L198.038 67.203L204.049 67.8979ZM199.605 62.8426L198.275 74.3542L195.224 74.0016L196.555 62.49L199.605 62.8426ZM206.568 63.6475L205.237 75.1591L202.209 74.8091L203.54 63.2975L206.568 63.6475ZM210.866 76.0301C210.132 75.9452 209.492 75.7421 208.947 75.4209C208.402 75.0946 207.992 74.6598 207.715 74.1165C207.444 73.5688 207.353 72.9152 207.441 72.1557C207.515 71.5162 207.694 70.9926 207.979 70.5851C208.264 70.1776 208.624 69.8648 209.06 69.6468C209.495 69.4287 209.978 69.282 210.508 69.2066C211.043 69.1318 211.599 69.0998 212.175 69.1107C212.852 69.1182 213.399 69.1156 213.816 69.103C214.233 69.0854 214.542 69.0248 214.741 68.9213C214.94 68.8178 215.054 68.6436 215.082 68.3988L215.087 68.3538C215.142 67.8791 215.035 67.4946 214.765 67.2001C214.5 66.9062 214.096 66.7278 213.551 66.6648C212.977 66.5984 212.505 66.673 212.135 66.8885C211.767 67.0991 211.506 67.3878 211.352 67.7548L208.427 67.1737C208.657 66.4915 209.022 65.921 209.521 65.4622C210.02 64.9984 210.633 64.6693 211.359 64.4748C212.091 64.2758 212.916 64.2295 213.836 64.3358C214.475 64.4097 215.079 64.5554 215.646 64.7729C216.218 64.9909 216.713 65.2836 217.132 65.6509C217.555 66.0189 217.87 66.4654 218.078 66.9907C218.286 67.5109 218.351 68.1133 218.271 68.7978L217.374 76.5622L214.346 76.2121L214.531 74.6158L214.441 74.6054C214.214 74.9438 213.93 75.2325 213.589 75.4714C213.248 75.7054 212.851 75.8747 212.398 75.9794C211.946 76.079 211.436 76.0959 210.866 76.0301ZM212.035 73.9324C212.505 73.9867 212.93 73.9422 213.311 73.7989C213.693 73.6506 214.005 73.4285 214.246 73.1324C214.488 72.8363 214.633 72.4859 214.679 72.0812L214.821 70.8596C214.713 70.913 214.569 70.957 214.388 70.9918C214.212 71.0221 214.014 71.0473 213.794 71.0675C213.575 71.0826 213.355 71.0952 213.137 71.1054C212.918 71.1105 212.72 71.1155 212.542 71.1202C212.161 71.1319 211.824 71.1815 211.53 71.269C211.237 71.3566 211.001 71.4939 210.822 71.6808C210.644 71.8628 210.538 72.1036 210.503 72.4034C210.453 72.8381 210.572 73.1885 210.86 73.4548C211.154 73.7166 211.545 73.8758 212.035 73.9324Z" fill="#011A3F"/>
<g opacity="0.6">
<path d="M367.431 81.5788L358.013 89.0447L350.547 79.6269" stroke="#011A3F" stroke-width="2.12452" stroke-linecap="round" stroke-linejoin="round"/>
</g>
</g>
<g filter="url(#filter1_d_1296_342)">
<rect x="9" y="138.849" width="391.899" height="90.6461" rx="28.3269" transform="rotate(-6.18213 9 138.849)" fill="white" shape-rendering="crispEdges"/>
<rect x="9" y="138.849" width="391.899" height="90.6461" rx="28.3269" transform="rotate(-6.18213 9 138.849)" fill="url(#paint2_linear_1296_342)" fill-opacity="0.2" shape-rendering="crispEdges"/>
<g clip-path="url(#clip1_1296_342)">
<path fill-rule="evenodd" clip-rule="evenodd" d="M45.8452 163.351L90.9047 158.47L94.5653 192.265L49.5058 197.146L45.8452 163.351Z" fill="#FFD700"/>
<path fill-rule="evenodd" clip-rule="evenodd" d="M45.8452 163.351L90.9047 158.47L92.735 175.368L47.6755 180.248L45.8452 163.351Z" fill="#0057B8"/>
</g>
<path d="M107.877 181.987L107.591 179.346L108.423 179.256C108.838 179.211 109.168 179.125 109.412 178.997C109.656 178.865 109.842 178.69 109.97 178.474C110.103 178.252 110.205 177.983 110.277 177.667L110.41 177.144L103.632 166.692L106.993 166.328L111.427 173.497L113.631 165.609L116.946 165.25L112.988 178.17C112.794 178.768 112.549 179.33 112.252 179.858C111.96 180.386 111.561 180.829 111.053 181.187C110.546 181.546 109.872 181.77 109.032 181.861L107.877 181.987ZM119.355 180.531L118.108 169.01L121.303 168.664L121.787 173.134L122.687 173.037L125.338 168.227L129.088 167.82L125.635 173.977L130.381 179.336L126.586 179.747L123.3 175.968L122.108 176.097L122.551 180.185L119.355 180.531ZM132.094 183.522L130.378 167.681L133.528 167.339L133.738 169.275L133.88 169.259C133.987 168.934 134.155 168.597 134.385 168.248C134.62 167.894 134.941 167.586 135.348 167.324C135.759 167.057 136.287 166.889 136.932 166.819C137.772 166.728 138.571 166.864 139.329 167.227C140.086 167.585 140.725 168.181 141.245 169.015C141.765 169.844 142.096 170.919 142.239 172.239C142.379 173.524 142.289 174.632 141.969 175.562C141.655 176.486 141.167 177.214 140.506 177.746C139.85 178.273 139.084 178.583 138.209 178.678C137.589 178.745 137.05 178.7 136.593 178.542C136.141 178.384 135.761 178.164 135.452 177.884C135.143 177.599 134.898 177.304 134.719 177L134.621 177.01L135.289 183.176L132.094 183.522ZM134.13 173.102C134.204 173.787 134.364 174.375 134.609 174.864C134.854 175.354 135.172 175.721 135.563 175.967C135.953 176.208 136.406 176.301 136.921 176.245C137.441 176.189 137.866 175.999 138.195 175.675C138.524 175.346 138.753 174.916 138.882 174.386C139.017 173.85 139.048 173.248 138.975 172.578C138.903 171.912 138.747 171.337 138.507 170.852C138.268 170.367 137.952 170.002 137.561 169.756C137.17 169.51 136.712 169.415 136.187 169.472C135.667 169.528 135.242 169.714 134.912 170.028C134.587 170.341 134.357 170.761 134.221 171.286C134.086 171.812 134.055 172.417 134.13 173.102ZM148.195 177.627C147.46 177.707 146.791 177.65 146.188 177.457C145.585 177.259 145.089 176.926 144.699 176.458C144.314 175.983 144.08 175.366 143.998 174.606C143.928 173.966 143.988 173.416 144.175 172.955C144.363 172.495 144.645 172.11 145.022 171.801C145.398 171.492 145.836 171.242 146.337 171.052C146.842 170.86 147.377 170.706 147.941 170.589C148.604 170.447 149.137 170.323 149.54 170.219C149.943 170.109 150.23 169.982 150.402 169.837C150.573 169.692 150.646 169.497 150.619 169.252L150.614 169.207C150.563 168.732 150.373 168.381 150.045 168.153C149.722 167.925 149.288 167.841 148.743 167.9C148.168 167.962 147.724 168.139 147.411 168.431C147.098 168.718 146.908 169.057 146.839 169.449L143.857 169.529C143.932 168.813 144.161 168.176 144.546 167.618C144.93 167.056 145.455 166.599 146.12 166.249C146.79 165.893 147.585 165.665 148.505 165.565C149.145 165.496 149.766 165.505 150.367 165.591C150.973 165.677 151.521 165.853 152.01 166.119C152.504 166.384 152.911 166.75 153.229 167.216C153.547 167.678 153.744 168.251 153.818 168.936L154.659 176.707L151.629 177.035L151.456 175.437L151.366 175.447C151.22 175.827 151.007 176.171 150.727 176.48C150.446 176.784 150.097 177.036 149.678 177.239C149.259 177.436 148.765 177.565 148.195 177.627ZM148.871 175.323C149.341 175.272 149.746 175.134 150.086 174.91C150.426 174.681 150.681 174.396 150.851 174.053C151.021 173.711 151.085 173.337 151.041 172.932L150.908 171.71C150.815 171.786 150.684 171.861 150.515 171.935C150.351 172.003 150.163 172.071 149.953 172.14C149.742 172.203 149.531 172.264 149.32 172.322C149.108 172.375 148.916 172.424 148.744 172.468C148.375 172.564 148.057 172.686 147.79 172.837C147.523 172.987 147.323 173.173 147.19 173.395C147.057 173.612 147.006 173.87 147.039 174.17C147.086 174.605 147.28 174.921 147.62 175.117C147.964 175.307 148.381 175.376 148.871 175.323ZM157.033 176.45L155.785 164.929L158.98 164.583L160.228 176.103L157.033 176.45ZM154.932 163.427C154.502 163.474 154.115 163.364 153.773 163.098C153.43 162.826 153.236 162.483 153.191 162.068C153.145 161.643 153.261 161.266 153.539 160.937C153.817 160.609 154.171 160.421 154.601 160.375C155.036 160.328 155.42 160.435 155.752 160.698C156.089 160.96 156.28 161.303 156.326 161.728C156.371 162.143 156.258 162.52 155.986 162.858C155.718 163.19 155.367 163.38 154.932 163.427ZM159.522 162.93C159.092 162.977 158.706 162.867 158.363 162.6C158.02 162.329 157.826 161.986 157.781 161.571C157.735 161.146 157.851 160.769 158.129 160.44C158.407 160.112 158.761 159.924 159.191 159.877C159.626 159.83 160.01 159.938 160.342 160.201C160.679 160.463 160.87 160.806 160.916 161.231C160.961 161.646 160.848 162.023 160.576 162.361C160.308 162.693 159.957 162.883 159.522 162.93ZM169.938 167.934L170.21 170.446L164.195 171.098L163.923 168.585L169.938 167.934ZM164.487 163.986L165.735 175.507L162.682 175.838L161.434 164.317L164.487 163.986ZM171.455 163.231L172.703 174.752L169.673 175.08L168.425 163.56L171.455 163.231ZM178.385 174.357C177.65 174.436 176.981 174.38 176.378 174.187C175.775 173.989 175.279 173.656 174.889 173.187C174.504 172.713 174.27 172.096 174.188 171.336C174.118 170.696 174.177 170.146 174.365 169.685C174.553 169.225 174.835 168.84 175.212 168.531C175.588 168.222 176.026 167.972 176.527 167.781C177.032 167.59 177.567 167.436 178.131 167.319C178.794 167.177 179.327 167.053 179.73 166.949C180.133 166.839 180.42 166.712 180.592 166.567C180.763 166.422 180.836 166.227 180.809 165.982L180.804 165.937C180.753 165.462 180.563 165.111 180.235 164.883C179.912 164.655 179.478 164.571 178.932 164.63C178.357 164.692 177.914 164.869 177.601 165.161C177.288 165.448 177.097 165.787 177.029 166.179L174.047 166.259C174.122 165.543 174.351 164.906 174.736 164.348C175.12 163.785 175.645 163.329 176.31 162.979C176.98 162.623 177.775 162.395 178.695 162.295C179.335 162.226 179.956 162.235 180.557 162.321C181.163 162.407 181.711 162.583 182.2 162.849C182.694 163.114 183.101 163.48 183.419 163.946C183.737 164.408 183.933 164.981 184.008 165.666L184.849 173.436L181.819 173.765L181.646 172.167L181.556 172.177C181.41 172.557 181.197 172.901 180.917 173.21C180.636 173.513 180.286 173.766 179.868 173.968C179.449 174.166 178.955 174.295 178.385 174.357ZM179.061 172.052C179.531 172.002 179.936 171.864 180.276 171.64C180.616 171.411 180.871 171.125 181.041 170.783C181.211 170.441 181.274 170.067 181.231 169.662L181.098 168.44C181.005 168.516 180.874 168.59 180.705 168.664C180.541 168.733 180.353 168.801 180.143 168.869C179.932 168.933 179.721 168.994 179.51 169.052C179.298 169.105 179.106 169.154 178.934 169.198C178.565 169.293 178.247 169.416 177.98 169.567C177.713 169.717 177.513 169.903 177.38 170.125C177.247 170.342 177.196 170.6 177.229 170.9C177.276 171.335 177.47 171.651 177.809 171.847C178.154 172.037 178.571 172.106 179.061 172.052Z" fill="#011A3F"/>
<g opacity="0.6">
<path d="M366.432 141.447L358.899 150.811L349.535 143.277" stroke="#011A3F" stroke-width="2.12452" stroke-linecap="round" stroke-linejoin="round"/>
</g>
</g>
<defs>
<filter id="filter0_d_1296_342" x="1.43285" y="-0.947512" width="430.036" height="165.372" filterUnits="userSpaceOnUse" color-interpolation-filters="sRGB">
<feFlood flood-opacity="0" result="BackgroundImageFix"/>
<feColorMatrix in="SourceAlpha" type="matrix" values="0 0 0 0 0 0 0 0 0 0 0 0 0 0 0 0 0 0 127 0" result="hardAlpha"/>
<feOffset dx="7.58009" dy="14.2127"/>
<feGaussianBlur stdDeviation="7.58009"/>
<feComposite in2="hardAlpha" operator="out"/>
<feColorMatrix type="matrix" values="0 0 0 0 0.286128 0 0 0 0 0.127939 0 0 0 0 0.36057 0 0 0 0.15 0"/>
<feBlend mode="normal" in2="BackgroundImageFix" result="effect1_dropShadow_1296_342"/>
<feBlend mode="normal" in="SourceGraphic" in2="effect1_dropShadow_1296_342" result="shape"/>
</filter>
<filter id="filter1_d_1296_342" x="-2.37014" y="85.276" width="437.282" height="170.223" filterUnits="userSpaceOnUse" color-interpolation-filters="sRGB">
<feFlood flood-opacity="0" result="BackgroundImageFix"/>
<feColorMatrix in="SourceAlpha" type="matrix" values="0 0 0 0 0 0 0 0 0 0 0 0 0 0 0 0 0 0 127 0" result="hardAlpha"/>
<feOffset dx="7.58009" dy="7.58009"/>
<feGaussianBlur stdDeviation="9.47512"/>
<feComposite in2="hardAlpha" operator="out"/>
<feColorMatrix type="matrix" values="0 0 0 0 0.286128 0 0 0 0 0.127939 0 0 0 0 0.36057 0 0 0 0.15 0"/>
<feBlend mode="normal" in2="BackgroundImageFix" result="effect1_dropShadow_1296_342"/>
<feBlend mode="normal" in="SourceGraphic" in2="effect1_dropShadow_1296_342" result="shape"/>
</filter>
<linearGradient id="paint0_linear_1296_342" x1="255.428" y1="-41.5" x2="403.928" y2="355.5" gradientUnits="userSpaceOnUse">
<stop stop-color="#B0ACEB"/>
<stop offset="1" stop-color="#644FE4"/>
</linearGradient>
<linearGradient id="paint1_linear_1296_342" x1="251.76" y1="116.214" x2="218.052" y2="18.5289" gradientUnits="userSpaceOnUse">
<stop/>
<stop offset="1" stop-opacity="0"/>
</linearGradient>
<linearGradient id="paint2_linear_1296_342" x1="244.196" y1="299.144" x2="230.221" y2="164.202" gradientUnits="userSpaceOnUse">
<stop stop-color="#421943"/>
<stop offset="1" stop-opacity="0"/>
</linearGradient>
<clipPath id="clip0_1296_342">
<rect x="49.937" y="32.0432" width="45.323" height="33.9923" rx="16.9961" transform="rotate(6.59436 49.937 32.0432)" fill="white"/>
</clipPath>
<clipPath id="clip1_1296_342">
<rect x="45.8452" y="163.351" width="45.323" height="33.9923" rx="16.9961" transform="rotate(-6.18213 45.8452 163.351)" fill="white"/>
</clipPath>
</defs>
</svg>
