<svg width="388" height="301" viewBox="0 0 388 301" fill="none" xmlns="http://www.w3.org/2000/svg">
<rect x="5" y="37" width="376" height="264" rx="48" fill="#644FE4"/>
<g filter="url(#filter0_d_1296_344)">
<rect x="28.7986" y="77.0071" width="354.498" height="57.0815" rx="28.5407" transform="rotate(13.785 28.7986 77.0071)" fill="#5FD263" shape-rendering="crispEdges"/>
<rect x="28.7986" y="77.0071" width="354.498" height="57.0815" rx="28.5407" transform="rotate(13.785 28.7986 77.0071)" fill="url(#paint0_linear_1296_344)" fill-opacity="0.5" shape-rendering="crispEdges"/>
<path d="M77.7985 126.139L78.2974 124.105L78.7564 124.202C79.3772 124.338 79.9143 124.247 80.3677 123.929C80.8261 123.613 81.2467 123.024 81.6295 122.164C82.0173 121.304 82.4233 120.13 82.8476 118.641L84.904 111.407L94.7297 113.818L90.9173 129.357L88.6031 128.79L91.9278 115.238L86.6242 113.937L84.9256 119.811C84.4516 121.459 83.9415 122.817 83.3954 123.884C82.8506 124.946 82.1862 125.687 81.4023 126.106C80.6235 126.526 79.6448 126.592 78.4662 126.302L77.7985 126.139ZM94.2976 134.82C93.9587 134.737 93.657 134.633 93.3924 134.51C93.1266 134.391 92.9329 134.284 92.8112 134.19L93.8136 132.465C94.2011 132.678 94.5585 132.817 94.886 132.881C95.2135 132.945 95.529 132.894 95.8327 132.727C96.1415 132.562 96.4553 132.244 96.7741 131.776L97.2447 131.071L95.8771 118.218L98.3051 118.814L99.0377 128.582L99.1591 128.612L104.33 120.292L106.765 120.89L98.7213 132.921C98.3498 133.473 97.9406 133.917 97.4936 134.253C97.0454 134.593 96.5575 134.811 96.0299 134.907C95.5023 135.003 94.9249 134.974 94.2976 134.82ZM117.705 123.574L114.846 135.228L112.63 134.684L115.49 123.03L117.705 123.574ZM115.414 128.747L114.934 130.705C114.55 130.761 114.15 130.797 113.733 130.812C113.317 130.823 112.887 130.806 112.442 130.761C111.998 130.716 111.542 130.637 111.077 130.523C109.636 130.169 108.576 129.536 107.899 128.625C107.223 127.708 107.063 126.521 107.421 125.065L108.355 121.256L110.563 121.797L109.629 125.606C109.493 126.158 109.485 126.63 109.603 127.024C109.721 127.417 109.947 127.741 110.282 127.995C110.616 128.248 111.041 128.439 111.557 128.565C112.24 128.733 112.886 128.824 113.493 128.839C114.107 128.85 114.748 128.82 115.414 128.747ZM120.509 124.262L122.732 124.807L120.355 134.496L124.384 135.485L126.761 125.796L128.985 126.341L126.607 136.03L130.636 137.019L133.013 127.33L135.237 127.875L132.377 139.529L117.65 135.916L120.509 124.262ZM140.158 141.688C139.01 141.406 138.081 140.918 137.372 140.224C136.669 139.526 136.202 138.674 135.972 137.668C135.748 136.659 135.784 135.549 136.08 134.34C136.373 133.147 136.854 132.149 137.523 131.348C138.196 130.548 138.998 129.991 139.927 129.677C140.862 129.365 141.871 129.342 142.953 129.607C143.611 129.769 144.221 130.034 144.785 130.403C145.349 130.772 145.819 131.249 146.195 131.835C146.572 132.42 146.811 133.12 146.911 133.933C147.013 134.741 146.935 135.674 146.675 136.731L146.478 137.535L137.214 135.262L137.631 133.562L144.672 135.29C144.818 134.693 144.827 134.135 144.697 133.615C144.568 133.09 144.317 132.639 143.942 132.263C143.573 131.888 143.095 131.629 142.508 131.485C141.871 131.329 141.276 131.349 140.724 131.546C140.178 131.739 139.714 132.054 139.333 132.492C138.959 132.926 138.7 133.433 138.557 134.015L138.232 135.343C138.041 136.122 138.015 136.818 138.154 137.431C138.298 138.046 138.582 138.558 139.007 138.968C139.434 139.373 139.978 139.657 140.641 139.819C141.071 139.925 141.478 139.96 141.861 139.926C142.247 139.886 142.598 139.774 142.917 139.589C143.236 139.405 143.508 139.147 143.734 138.817L145.787 139.73C145.46 140.32 145.015 140.799 144.453 141.165C143.898 141.527 143.254 141.758 142.522 141.857C141.796 141.953 141.008 141.896 140.158 141.688ZM152.485 144.712C151.336 144.43 150.408 143.942 149.699 143.248C148.996 142.55 148.529 141.698 148.298 140.692C148.074 139.683 148.11 138.574 148.407 137.365C148.7 136.171 149.181 135.173 149.849 134.372C150.523 133.572 151.324 133.015 152.254 132.702C153.189 132.389 154.197 132.366 155.28 132.632C155.937 132.793 156.548 133.058 157.112 133.427C157.675 133.796 158.145 134.273 158.522 134.859C158.898 135.445 159.137 136.144 159.238 136.957C159.34 137.765 159.261 138.698 159.002 139.755L158.805 140.559L149.54 138.286L149.957 136.587L156.998 138.314C157.145 137.717 157.153 137.159 157.023 136.639C156.895 136.114 156.643 135.664 156.269 135.288C155.9 134.913 155.422 134.653 154.835 134.509C154.198 134.353 153.603 134.373 153.05 134.57C152.504 134.763 152.041 135.079 151.66 135.516C151.285 135.95 151.027 136.458 150.884 137.039L150.558 138.367C150.367 139.146 150.341 139.842 150.48 140.456C150.624 141.07 150.909 141.582 151.334 141.992C151.76 142.397 152.305 142.681 152.967 142.843C153.397 142.949 153.804 142.984 154.188 142.95C154.573 142.91 154.925 142.798 155.244 142.614C155.563 142.429 155.835 142.171 156.061 141.841L158.113 142.755C157.786 143.345 157.342 143.823 156.78 144.189C156.224 144.552 155.58 144.782 154.848 144.882C154.122 144.977 153.334 144.92 152.485 144.712ZM165.287 147.604L168.146 135.949L177.653 138.282L174.794 149.936L172.571 149.391L174.95 139.694L169.874 138.449L167.495 148.145L165.287 147.604ZM176.541 154.998L180.473 138.974L182.688 139.517L182.225 141.406L182.414 141.453C182.606 141.242 182.864 141.008 183.19 140.75C183.516 140.492 183.928 140.299 184.427 140.169C184.926 140.034 185.538 140.055 186.261 140.233C187.202 140.464 187.983 140.907 188.605 141.564C189.227 142.221 189.638 143.048 189.838 144.047C190.044 145.046 189.992 146.176 189.683 147.435C189.374 148.695 188.899 149.723 188.258 150.521C187.619 151.313 186.873 151.862 186.02 152.168C185.169 152.468 184.272 152.503 183.332 152.272C182.623 152.098 182.073 151.837 181.682 151.489C181.295 151.142 181.014 150.778 180.839 150.398C180.665 150.017 180.539 149.686 180.464 149.405L180.327 149.371L178.81 155.555L176.541 154.998ZM181.266 145.346C181.065 146.166 181.008 146.913 181.094 147.588C181.18 148.264 181.406 148.831 181.77 149.291C182.136 149.745 182.645 150.053 183.298 150.213C183.976 150.379 184.586 150.338 185.13 150.091C185.674 149.838 186.139 149.43 186.525 148.865C186.915 148.301 187.206 147.629 187.397 146.85C187.586 146.081 187.639 145.362 187.556 144.693C187.479 144.025 187.253 143.458 186.88 142.991C186.511 142.525 185.986 142.208 185.303 142.041C184.645 141.88 184.047 141.913 183.509 142.14C182.976 142.368 182.518 142.757 182.136 143.307C181.755 143.857 181.465 144.537 181.266 145.346ZM195.552 155.278C194.404 154.997 193.475 154.509 192.766 153.815C192.063 153.117 191.596 152.265 191.366 151.259C191.141 150.249 191.178 149.14 191.474 147.931C191.767 146.737 192.248 145.74 192.916 144.939C193.59 144.138 194.392 143.582 195.321 143.268C196.256 142.956 197.264 142.932 198.347 143.198C199.004 143.359 199.615 143.624 200.179 143.993C200.743 144.362 201.213 144.84 201.589 145.425C201.966 146.011 202.204 146.711 202.305 147.524C202.407 148.332 202.329 149.264 202.069 150.321L201.872 151.126L192.608 148.853L193.025 147.153L200.066 148.881C200.212 148.284 200.221 147.725 200.091 147.205C199.962 146.681 199.711 146.23 199.336 145.854C198.967 145.479 198.489 145.22 197.902 145.076C197.265 144.919 196.67 144.94 196.118 145.137C195.571 145.33 195.108 145.645 194.727 146.083C194.353 146.516 194.094 147.024 193.951 147.606L193.626 148.933C193.434 149.712 193.408 150.409 193.548 151.022C193.692 151.636 193.976 152.149 194.401 152.559C194.827 152.964 195.372 153.247 196.035 153.41C196.464 153.515 196.871 153.551 197.255 153.516C197.64 153.477 197.992 153.365 198.311 153.18C198.63 152.996 198.902 152.738 199.128 152.407L201.18 153.321C200.853 153.911 200.409 154.389 199.847 154.756C199.292 155.118 198.648 155.349 197.916 155.448C197.19 155.543 196.402 155.487 195.552 155.278ZM200.951 159.917L202.257 154.591L203.206 154.823C203.503 154.66 203.773 154.445 204.016 154.178C204.263 153.911 204.498 153.58 204.718 153.183C204.944 152.788 205.167 152.317 205.387 151.771C205.608 151.219 205.839 150.584 206.079 149.865L207.51 145.607L215.432 147.551L213.054 157.24L214.845 157.679L213.538 163.005L211.323 162.462L212.147 159.101L204.021 157.107L203.196 160.468L200.951 159.917ZM205.634 155.419L210.839 156.696L212.739 148.949L209.067 148.048L208.234 150.394C207.817 151.59 207.41 152.616 207.012 153.473C206.616 154.325 206.156 154.973 205.634 155.419ZM215.448 159.911L215.923 157.944L216.34 158.046C216.664 158.125 216.951 158.123 217.202 158.04C217.46 157.953 217.7 157.76 217.924 157.461C218.147 157.162 218.369 156.728 218.589 156.16C218.81 155.587 219.048 154.857 219.303 153.97L220.774 148.861L228.908 150.857L226.048 162.511L223.825 161.966L226.204 152.269L222.395 151.334L221.241 155.25C220.96 156.2 220.655 157.016 220.327 157.697C220.005 158.379 219.642 158.926 219.241 159.337C218.841 159.743 218.39 160.01 217.886 160.139C217.384 160.262 216.814 160.246 216.177 160.089L215.448 159.911ZM233.711 164.641C232.619 164.373 231.727 163.888 231.035 163.188C230.344 162.487 229.883 161.631 229.654 160.621C229.425 159.61 229.458 158.502 229.753 157.299C230.05 156.09 230.534 155.088 231.207 154.293C231.879 153.498 232.684 152.95 233.621 152.649C234.558 152.348 235.573 152.331 236.666 152.599C237.758 152.867 238.65 153.352 239.342 154.052C240.033 154.753 240.493 155.611 240.721 156.627C240.949 157.643 240.915 158.755 240.618 159.964C240.323 161.168 239.84 162.165 239.169 162.955C238.498 163.745 237.693 164.29 236.756 164.591C235.819 164.892 234.804 164.909 233.711 164.641ZM234.186 162.738C234.894 162.912 235.527 162.869 236.084 162.608C236.642 162.348 237.108 161.935 237.483 161.367C237.863 160.801 238.145 160.143 238.329 159.394C238.511 158.651 238.565 157.94 238.49 157.262C238.421 156.58 238.201 155.993 237.829 155.499C237.456 155.005 236.916 154.672 236.208 154.498C235.495 154.323 234.856 154.368 234.293 154.632C233.734 154.897 233.264 155.315 232.883 155.886C232.508 156.454 232.229 157.11 232.046 157.853C231.863 158.602 231.806 159.314 231.876 159.991C231.951 160.669 232.175 161.253 232.549 161.741C232.927 162.231 233.473 162.563 234.186 162.738ZM240.318 166.012L246.296 161.156L243.23 154.371L245.871 155.019L248.287 160.744L249.099 160.943L250.287 156.102L252.555 156.659L251.368 161.499L252.157 161.693L256.948 157.737L259.589 158.384L253.754 162.986L256.783 170.052L254.089 169.391L251.646 163.643L250.887 163.457L249.696 168.313L247.427 167.756L248.619 162.9L247.86 162.714L243.011 166.673L240.318 166.012ZM263.382 171.92C262.233 171.638 261.305 171.151 260.596 170.456C259.893 169.758 259.426 168.906 259.195 167.901C258.971 166.891 259.007 165.782 259.304 164.573C259.597 163.379 260.078 162.382 260.746 161.58C261.42 160.78 262.221 160.223 263.151 159.91C264.086 159.598 265.094 159.574 266.177 159.84C266.834 160.001 267.445 160.266 268.009 160.635C268.572 161.004 269.043 161.481 269.419 162.067C269.795 162.653 270.034 163.352 270.135 164.165C270.237 164.973 270.158 165.906 269.899 166.963L269.702 167.767L260.437 165.494L260.854 163.795L267.896 165.522C268.042 164.926 268.05 164.367 267.92 163.847C267.792 163.322 267.54 162.872 267.166 162.496C266.797 162.121 266.319 161.862 265.732 161.718C265.095 161.561 264.5 161.582 263.947 161.778C263.401 161.972 262.938 162.287 262.557 162.724C262.182 163.158 261.924 163.666 261.781 164.247L261.455 165.575C261.264 166.354 261.238 167.05 261.377 167.664C261.521 168.278 261.806 168.791 262.231 169.2C262.657 169.605 263.202 169.889 263.864 170.052C264.294 170.157 264.701 170.193 265.085 170.158C265.47 170.119 265.822 170.006 266.141 169.822C266.46 169.637 266.732 169.38 266.958 169.049L269.01 169.963C268.683 170.553 268.239 171.031 267.677 171.397C267.121 171.76 266.478 171.991 265.745 172.09C265.019 172.185 264.231 172.129 263.382 171.92ZM280.311 168.609L279.829 170.574L273.516 169.025L273.999 167.06L280.311 168.609ZM275.826 162.368L272.966 174.022L270.743 173.477L273.602 161.823L275.826 162.368ZM283.087 164.149L280.227 175.804L278.012 175.26L280.871 163.606L283.087 164.149ZM286.052 173.862L293.268 166.647L295.711 167.247L292.852 178.901L290.629 178.356L292.71 169.873L285.515 177.101L283.049 176.496L285.908 164.842L288.131 165.387L286.052 173.862ZM300.653 181.065C299.505 180.783 298.576 180.295 297.867 179.601C297.164 178.903 296.698 178.051 296.467 177.045C296.243 176.036 296.279 174.926 296.576 173.717C296.869 172.524 297.349 171.526 298.018 170.725C298.691 169.925 299.493 169.368 300.423 169.054C301.357 168.742 302.366 168.719 303.448 168.984C304.106 169.146 304.717 169.411 305.28 169.78C305.844 170.149 306.314 170.626 306.691 171.212C307.067 171.797 307.306 172.497 307.407 173.31C307.509 174.118 307.43 175.05 307.171 176.108L306.973 176.912L297.709 174.639L298.126 172.939L305.167 174.667C305.314 174.07 305.322 173.512 305.192 172.992C305.064 172.467 304.812 172.016 304.438 171.64C304.069 171.265 303.591 171.006 303.004 170.862C302.366 170.706 301.772 170.726 301.219 170.923C300.673 171.116 300.209 171.431 299.829 171.869C299.454 172.303 299.195 172.81 299.053 173.392L298.727 174.72C298.536 175.499 298.51 176.195 298.649 176.808C298.793 177.423 299.078 177.935 299.503 178.345C299.929 178.75 300.473 179.034 301.136 179.196C301.566 179.302 301.973 179.337 302.357 179.303C302.742 179.263 303.094 179.151 303.413 178.966C303.731 178.782 304.004 178.524 304.23 178.193L306.282 179.107C305.955 179.697 305.51 180.176 304.949 180.542C304.393 180.904 303.749 181.135 303.017 181.234C302.291 181.33 301.503 181.273 300.653 181.065Z" fill="white"/>
</g>
<g filter="url(#filter1_d_1296_344)">
<rect x="52.095" y="67.5346" width="278.272" height="57.0815" rx="28.5407" transform="rotate(-12.9867 52.095 67.5346)" fill="#D861DB" shape-rendering="crispEdges"/>
<rect x="52.095" y="67.5346" width="278.272" height="57.0815" rx="28.5407" transform="rotate(-12.9867 52.095 67.5346)" fill="url(#paint1_linear_1296_344)" fill-opacity="0.5" shape-rendering="crispEdges"/>
<path d="M121.771 77.3722L119.396 77.92C119.187 77.4335 118.914 77.0261 118.577 76.6978C118.239 76.3694 117.859 76.1123 117.437 75.9264C117.014 75.7405 116.564 75.6306 116.086 75.5966C115.613 75.5614 115.127 75.6011 114.63 75.7158C113.732 75.923 112.979 76.3343 112.373 76.9499C111.772 77.5643 111.366 78.3553 111.157 79.323C110.952 80.2896 110.995 81.4022 111.285 82.6608C111.577 83.9296 112.027 84.9536 112.635 85.7329C113.247 86.511 113.96 87.0415 114.774 87.3242C115.587 87.607 116.438 87.6459 117.326 87.4411C117.818 87.3276 118.27 87.1539 118.681 86.9201C119.096 86.6801 119.453 86.3866 119.753 86.0396C120.052 85.6926 120.283 85.3001 120.444 84.8621C120.608 84.4179 120.682 83.9359 120.663 83.4163L123.04 82.8762C123.09 83.6718 123.007 84.434 122.79 85.1628C122.577 85.8854 122.24 86.5457 121.779 87.1437C121.323 87.7354 120.761 88.2418 120.093 88.663C119.426 89.0841 118.664 89.3936 117.806 89.5914C116.456 89.9027 115.179 89.8604 113.976 89.4644C112.772 89.0633 111.727 88.3341 110.842 87.2768C109.962 86.2184 109.331 84.8594 108.948 83.1998C108.564 81.5352 108.539 80.0363 108.873 78.7032C109.206 77.365 109.826 76.2545 110.734 75.3716C111.641 74.4836 112.767 73.8845 114.112 73.5743C114.939 73.3835 115.738 73.3249 116.509 73.3984C117.283 73.4656 118.01 73.6615 118.689 73.986C119.367 74.3054 119.969 74.7492 120.495 75.3173C121.021 75.8803 121.446 76.5653 121.771 77.3722ZM130.077 86.8094C129.336 86.9803 128.635 86.9978 127.973 86.8618C127.31 86.7208 126.742 86.4268 126.27 85.9797C125.803 85.5315 125.482 84.9242 125.305 84.1579C125.153 83.4981 125.154 82.9258 125.31 82.441C125.465 81.9561 125.73 81.5396 126.104 81.1915C126.478 80.8433 126.917 80.5443 127.42 80.2946C127.924 80.0448 128.445 79.8231 128.983 79.6296C129.664 79.3868 130.218 79.1898 130.642 79.0384C131.066 78.8819 131.363 78.7199 131.533 78.5525C131.702 78.385 131.756 78.1643 131.693 77.8902L131.68 77.8369C131.527 77.1721 131.22 76.7003 130.76 76.4215C130.306 76.1415 129.71 76.0864 128.975 76.2561C128.208 76.4328 127.643 76.7421 127.28 77.184C126.921 77.6196 126.705 78.0623 126.633 78.512L124.381 78.5181C124.471 77.7491 124.709 77.0901 125.096 76.5413C125.486 75.9862 125.978 75.536 126.572 75.1906C127.165 74.8401 127.814 74.5835 128.519 74.4208C128.986 74.3132 129.494 74.2549 130.042 74.246C130.595 74.2308 131.133 74.3152 131.656 74.4991C132.185 74.6819 132.658 75.0083 133.077 75.4784C133.494 75.9434 133.801 76.6022 133.997 77.4549L135.788 85.2198L133.565 85.7324L133.197 84.1338L133.105 84.1548C133.026 84.4831 132.872 84.8233 132.643 85.1754C132.414 85.5275 132.091 85.8507 131.672 86.145C131.254 86.4393 130.722 86.6608 130.077 86.8094ZM130.151 84.8682C130.78 84.7231 131.29 84.4747 131.679 84.123C132.073 83.7702 132.341 83.3664 132.482 82.9116C132.627 82.4506 132.646 81.9891 132.539 81.5273L132.192 80.02C132.129 80.1199 131.989 80.2323 131.772 80.3572C131.559 80.4759 131.311 80.5945 131.029 80.7131C130.745 80.8267 130.468 80.936 130.198 81.041C129.927 81.1409 129.701 81.2251 129.519 81.2938C129.09 81.4515 128.709 81.6384 128.374 81.8546C128.044 82.0697 127.798 82.3267 127.637 82.6257C127.48 82.9185 127.449 83.2679 127.542 83.6739C127.672 84.2372 127.979 84.6156 128.462 84.8089C128.943 84.9971 129.506 85.0169 130.151 84.8682ZM144.518 80.24L146.247 70.4928L148.211 70.0398L146.013 82.8618L144.323 83.2515L136.83 72.6645L138.771 72.2168L144.518 80.24ZM138.139 72.3626L140.836 84.0556L138.606 84.57L135.909 72.877L138.139 72.3626ZM149.56 82.0436L146.863 70.3506L149.079 69.8397L151.775 81.5327L149.56 82.0436ZM154.538 72.8139L157.933 72.0309C159.364 71.7009 160.548 71.8021 161.483 72.3347C162.418 72.8673 163.015 73.6944 163.274 74.816C163.442 75.5469 163.421 76.2439 163.211 76.9071C163 77.5703 162.602 78.1486 162.015 78.642C161.428 79.1303 160.657 79.4844 159.703 79.7045L154.595 80.8825L151.898 69.1895L154.129 68.6751L156.372 78.4041L159.25 77.7404C159.905 77.5894 160.403 77.2954 160.746 76.8582C161.088 76.4159 161.197 75.9283 161.074 75.3955C160.944 74.8321 160.628 74.4214 160.125 74.1633C159.62 73.9001 159.041 73.844 158.386 73.995L154.991 74.778L154.538 72.8139ZM165.823 78.2929L163.127 66.5999L165.403 66.0749L168.1 77.768L165.823 78.2929ZM172.435 73.4089L175.627 63.7169L178.079 63.1516L180.775 74.8447L178.545 75.3591L176.582 66.8481L173.414 76.5424L170.94 77.113L168.243 65.4199L170.474 64.9055L172.435 73.4089ZM173.74 59.9831L175.613 59.5512C175.811 60.4089 175.667 61.1769 175.182 61.8553C174.701 62.5275 173.945 62.9824 172.915 63.22C171.89 63.4564 171.014 63.3778 170.287 62.9842C169.559 62.5855 169.096 61.9573 168.898 61.0997L170.764 60.6695C170.851 61.0501 171.041 61.3619 171.332 61.6048C171.622 61.8425 172.039 61.8988 172.582 61.7736C173.114 61.6507 173.462 61.4182 173.623 61.0763C173.79 60.7332 173.829 60.3688 173.74 59.9831ZM194.4 54.8014L195.676 56.0225C195.4 56.423 195.054 56.7432 194.639 56.9833C194.228 57.217 193.737 57.4184 193.167 57.5874C192.595 57.7512 191.939 57.9319 191.199 58.1293C190.363 58.349 189.712 58.6915 189.247 59.1567C188.782 59.6169 188.478 60.2109 188.335 60.9385C188.197 61.6599 188.199 62.5254 188.341 63.5349L188.486 63.5016C188.699 62.688 189.101 62.0233 189.693 61.5073C190.29 60.9901 191.012 60.6338 191.86 60.4383C192.804 60.2206 193.694 60.2426 194.529 60.5043C195.364 60.766 196.089 61.2644 196.702 61.9995C197.319 62.7285 197.766 63.6918 198.042 64.8895C198.322 66.1025 198.34 67.202 198.097 68.1881C197.859 69.173 197.392 69.9995 196.697 70.6678C196.005 71.3298 195.113 71.7866 194.022 72.0382C192.931 72.2899 191.923 72.2632 190.997 71.9582C190.075 71.6469 189.279 71.0556 188.608 70.1841C187.941 69.3115 187.443 68.1596 187.113 66.7285L186.846 65.5713C186.229 62.8968 186.242 60.7744 186.885 59.2044C187.528 57.6344 188.794 56.6128 190.684 56.1395C191.295 55.9826 191.842 55.8537 192.327 55.7526C192.81 55.6465 193.226 55.5265 193.575 55.3927C193.927 55.2526 194.202 55.0555 194.4 54.8014ZM193.589 70.1257C194.223 69.9794 194.732 69.6937 195.115 69.2686C195.502 68.8373 195.751 68.2961 195.863 67.6449C195.975 66.9938 195.938 66.2647 195.752 65.4578C195.569 64.6661 195.29 64.0223 194.913 63.5265C194.537 63.0306 194.085 62.6913 193.556 62.5086C193.026 62.3207 192.439 62.3011 191.795 62.4498C191.318 62.5598 190.911 62.7418 190.574 62.9959C190.236 63.2449 189.969 63.5603 189.774 63.9421C189.584 64.3227 189.468 64.7609 189.427 65.2567C189.391 65.7462 189.436 66.289 189.562 66.8852C189.841 68.093 190.339 68.991 191.058 69.579C191.781 70.1658 192.625 70.3481 193.589 70.1257ZM201.621 61.9554L205.016 61.1724C206.448 60.8423 207.631 60.9436 208.566 61.4762C209.501 62.0088 210.098 62.8359 210.357 63.9575C210.526 64.6883 210.505 65.3854 210.294 66.0486C210.084 66.7118 209.685 67.2901 209.099 67.7835C208.511 68.2718 207.74 68.6259 206.786 68.846L201.678 70.024L198.981 58.3309L201.212 57.8165L203.456 67.5455L206.333 66.8819C206.988 66.7309 207.487 66.4368 207.829 65.9996C208.171 65.5574 208.28 65.0698 208.158 64.5369C208.028 63.9736 207.711 63.5629 207.208 63.3048C206.704 63.0416 206.124 62.9855 205.469 63.1365L202.074 63.9195L201.621 61.9554ZM212.907 67.4344L210.21 55.7413L212.486 55.2164L215.183 66.9095L212.907 67.4344ZM223.003 65.3545C221.871 65.6155 220.838 65.584 219.902 65.2598C218.971 64.9294 218.182 64.3603 217.536 63.5526C216.89 62.7448 216.432 61.7547 216.162 60.5823C215.888 59.3948 215.87 58.2953 216.107 57.2838C216.343 56.2673 216.807 55.4091 217.501 54.7092C218.195 54.0094 219.093 53.5325 220.194 53.2785C221.082 53.0737 221.912 53.056 222.683 53.2255C223.453 53.39 224.12 53.7174 224.682 54.2078C225.249 54.697 225.664 55.3256 225.926 56.0935L223.711 56.6044C223.463 56.0844 223.075 55.6768 222.547 55.3816C222.024 55.0852 221.4 55.0207 220.674 55.1881C220.04 55.3344 219.523 55.63 219.123 56.075C218.727 56.5138 218.468 57.0706 218.346 57.7456C218.222 58.4154 218.257 59.1665 218.449 59.9988C218.645 60.8515 218.944 61.5575 219.346 62.117C219.748 62.6765 220.224 63.0718 220.774 63.303C221.329 63.533 221.929 63.5737 222.574 63.425C223.005 63.3255 223.378 63.1567 223.692 62.9186C224.01 62.6743 224.253 62.3749 224.423 62.0205C224.597 61.6649 224.684 61.2653 224.684 60.8219L226.899 60.311C226.992 61.0859 226.902 61.8176 226.627 62.5062C226.353 63.1948 225.91 63.7887 225.299 64.2879C224.692 64.786 223.927 65.1415 223.003 65.3545ZM226.843 53.9739L226.39 52.0098L236.256 49.7345L236.709 51.6985L232.895 52.5781L235.139 62.3071L232.916 62.8198L230.672 53.0908L226.843 53.9739ZM242.157 65.3067L238.449 49.2287L240.672 48.716L241.109 50.6116L241.3 50.5677C241.376 50.2937 241.501 49.9681 241.676 49.591C241.851 49.2139 242.132 48.8552 242.518 48.5148C242.903 48.1694 243.459 47.913 244.185 47.7456C245.129 47.5279 246.026 47.5722 246.877 47.8784C247.728 48.1845 248.468 48.7382 249.096 49.5393C249.73 50.3393 250.192 51.3712 250.484 52.6349C250.775 53.8986 250.814 55.0307 250.601 56.0312C250.387 57.0266 249.969 57.8528 249.345 58.5097C248.72 59.1616 247.936 59.5964 246.992 59.8141C246.282 59.9779 245.673 59.9927 245.166 59.8583C244.665 59.7228 244.25 59.5244 243.923 59.2632C243.595 59.002 243.334 58.7629 243.14 58.5458L243.003 58.5774L244.434 64.7817L242.157 65.3067ZM242.028 54.5608C242.218 55.383 242.503 56.0761 242.885 56.6403C243.266 57.2044 243.723 57.6095 244.255 57.8555C244.787 58.0965 245.38 58.1415 246.034 57.9905C246.714 57.8336 247.241 57.5224 247.615 57.0567C247.987 56.586 248.218 56.0115 248.308 55.3335C248.402 54.6542 248.36 53.9238 248.179 53.1422C248.001 52.3708 247.725 51.705 247.35 51.1447C246.98 50.5833 246.523 50.1782 245.979 49.9295C245.441 49.6796 244.829 49.6336 244.143 49.7916C243.484 49.9438 242.965 50.2425 242.586 50.6879C242.213 51.1321 241.98 51.6856 241.887 52.3485C241.794 53.0114 241.841 53.7488 242.028 54.5608ZM254.106 49.8513L257.501 49.0682C258.932 48.7382 260.115 48.8394 261.051 49.372C261.986 49.9047 262.583 50.7318 262.842 51.8534C263.01 52.5842 262.989 53.2812 262.779 53.9444C262.568 54.6077 262.17 55.1859 261.583 55.6793C260.996 56.1676 260.225 56.5218 259.271 56.7418L254.163 57.9199L251.466 46.2268L253.696 45.7124L255.94 55.4414L258.818 54.7777C259.472 54.6267 259.971 54.3327 260.314 53.8955C260.656 53.4532 260.765 52.9657 260.642 52.4328C260.512 51.8694 260.196 51.4587 259.692 51.2006C259.188 50.9374 258.609 50.8813 257.954 51.0323L254.559 51.8153L254.106 49.8513ZM265.391 55.3302L262.695 43.6372L264.971 43.1122L267.667 54.8053L265.391 55.3302ZM272.003 50.4462L275.195 40.7542L277.647 40.1889L280.343 51.882L278.113 52.3964L276.15 43.8854L272.982 53.5797L270.508 54.1503L267.811 42.4572L270.041 41.9428L272.003 50.4462ZM273.308 37.0204L275.181 36.5885C275.378 37.4462 275.235 38.2142 274.75 38.8926C274.269 39.5648 273.513 40.0197 272.483 40.2573C271.458 40.4937 270.582 40.4151 269.855 40.0215C269.127 39.6228 268.664 38.9947 268.466 38.137L270.331 37.7068C270.419 38.0875 270.609 38.3992 270.9 38.6421C271.19 38.8798 271.606 38.9361 272.149 38.8109C272.682 38.688 273.03 38.4556 273.191 38.1136C273.358 37.7705 273.397 37.4061 273.308 37.0204Z" fill="white"/>
</g>
<g filter="url(#filter2_d_1296_344)">
<rect x="58.4487" y="195.996" width="269.023" height="57.0815" rx="28.5407" transform="rotate(-2.98 58.4487 195.996)" fill="#644FE4" shape-rendering="crispEdges"/>
<rect x="58.4487" y="195.996" width="269.023" height="57.0815" rx="28.5407" transform="rotate(-2.98 58.4487 195.996)" fill="url(#paint2_linear_1296_344)" fill-opacity="0.5" shape-rendering="crispEdges"/>
<path d="M111.523 229.322L110.691 213.344L116.386 213.047C117.629 212.983 118.671 213.155 119.511 213.565C120.351 213.975 120.995 214.562 121.441 215.327C121.887 216.086 122.136 216.954 122.187 217.932C122.238 218.915 122.079 219.81 121.709 220.617C121.344 221.418 120.762 222.069 119.964 222.57C119.171 223.065 118.156 223.344 116.918 223.409L113.001 223.613L112.895 221.569L116.593 221.376C117.378 221.335 118.008 221.167 118.483 220.871C118.958 220.57 119.297 220.177 119.501 219.691C119.706 219.206 119.792 218.662 119.761 218.058C119.729 217.455 119.587 216.925 119.334 216.469C119.08 216.013 118.7 215.665 118.192 215.425C117.689 215.186 117.037 215.087 116.236 215.128L113.209 215.286L113.933 229.197L111.523 229.322ZM130.196 228.593C129.015 228.654 127.985 228.455 127.106 227.995C126.232 227.529 125.539 226.848 125.028 225.951C124.522 225.049 124.237 223.977 124.172 222.734C124.109 221.506 124.281 220.413 124.69 219.452C125.104 218.492 125.711 217.728 126.511 217.159C127.316 216.591 128.275 216.277 129.388 216.22C130.064 216.184 130.725 216.262 131.371 216.453C132.017 216.643 132.605 216.965 133.135 217.417C133.664 217.869 134.094 218.47 134.425 219.219C134.756 219.964 134.95 220.879 135.007 221.966L135.05 222.793L125.523 223.289L125.432 221.542L132.673 221.165C132.641 220.551 132.488 220.014 132.213 219.554C131.939 219.088 131.568 218.729 131.101 218.477C130.639 218.225 130.107 218.114 129.504 218.146C128.848 218.18 128.284 218.371 127.812 218.719C127.345 219.061 126.992 219.497 126.754 220.026C126.52 220.549 126.419 221.11 126.45 221.708L126.521 223.073C126.563 223.874 126.739 224.548 127.049 225.095C127.364 225.642 127.785 226.051 128.31 226.32C128.835 226.585 129.438 226.7 130.119 226.664C130.561 226.641 130.961 226.558 131.319 226.414C131.676 226.265 131.981 226.056 132.233 225.788C132.485 225.519 132.671 225.194 132.792 224.812L135.021 225.095C134.878 225.754 134.59 226.34 134.158 226.853C133.731 227.36 133.181 227.767 132.508 228.073C131.841 228.374 131.07 228.547 130.196 228.593ZM137.694 227.96L137.07 215.976L139.402 215.855L139.664 220.879L140.788 220.821L144.482 215.59L147.368 215.44L143.03 221.51L148.047 227.421L145.152 227.572L141.291 222.969L139.777 223.048L140.026 227.838L137.694 227.96ZM154.206 227.343C153.083 227.401 152.089 227.195 151.224 226.723C150.36 226.252 149.673 225.566 149.161 224.664C148.65 223.762 148.363 222.692 148.298 221.454C148.233 220.211 148.408 219.112 148.823 218.157C149.237 217.202 149.85 216.445 150.66 215.887C151.471 215.328 152.438 215.02 153.561 214.961C154.685 214.903 155.679 215.109 156.543 215.58C157.407 216.052 158.095 216.741 158.606 217.648C159.118 218.555 159.406 219.63 159.471 220.873C159.535 222.111 159.36 223.205 158.945 224.155C158.53 225.104 157.918 225.859 157.107 226.417C156.297 226.976 155.329 227.284 154.206 227.343ZM154.112 225.384C154.84 225.346 155.433 225.122 155.892 224.712C156.35 224.303 156.677 223.772 156.873 223.12C157.074 222.468 157.154 221.757 157.114 220.988C157.074 220.223 156.921 219.527 156.653 218.899C156.391 218.266 156.01 217.767 155.511 217.402C155.012 217.037 154.399 216.873 153.671 216.911C152.937 216.949 152.339 217.176 151.876 217.591C151.417 218.006 151.088 218.542 150.888 219.2C150.692 219.851 150.614 220.559 150.654 221.324C150.694 222.094 150.845 222.793 151.107 223.42C151.375 224.048 151.758 224.542 152.256 224.902C152.76 225.261 153.378 225.422 154.112 225.384ZM168.739 223.449L172.135 214.151L174.148 214.046L169.755 226.291L168.023 226.381L162.484 214.653L164.473 214.549L168.739 223.449ZM163.826 214.583L164.45 226.567L162.164 226.686L161.54 214.702L163.826 214.583ZM173.391 226.102L172.767 214.118L175.037 214L175.661 225.983L173.391 226.102ZM183.728 225.806C182.547 225.867 181.517 225.668 180.638 225.208C179.764 224.742 179.071 224.061 178.56 223.165C178.054 222.263 177.769 221.19 177.704 219.947C177.64 218.72 177.813 217.626 178.222 216.666C178.636 215.705 179.243 214.941 180.043 214.373C180.848 213.804 181.806 213.491 182.92 213.433C183.596 213.398 184.257 213.475 184.903 213.666C185.549 213.857 186.137 214.178 186.667 214.63C187.196 215.082 187.626 215.683 187.957 216.433C188.288 217.177 188.482 218.093 188.538 219.18L188.581 220.007L179.055 220.503L178.964 218.755L186.205 218.378C186.173 217.764 186.019 217.227 185.745 216.767C185.471 216.301 185.1 215.943 184.633 215.69C184.171 215.438 183.639 215.328 183.035 215.359C182.38 215.393 181.816 215.584 181.344 215.932C180.877 216.275 180.524 216.71 180.286 217.239C180.052 217.762 179.951 218.323 179.982 218.921L180.053 220.286C180.095 221.087 180.271 221.761 180.581 222.309C180.896 222.855 181.317 223.264 181.842 223.534C182.367 223.798 182.97 223.913 183.651 223.878C184.093 223.855 184.493 223.771 184.851 223.627C185.208 223.478 185.513 223.27 185.765 223.001C186.017 222.732 186.203 222.407 186.324 222.025L188.553 222.308C188.41 222.968 188.122 223.554 187.69 224.066C187.262 224.574 186.713 224.98 186.04 225.287C185.372 225.587 184.602 225.76 183.728 225.806ZM198.983 217.752L199.088 219.773L192.597 220.111L192.492 218.09L198.983 217.752ZM192.888 213.07L193.511 225.054L191.225 225.173L190.602 213.189L192.888 213.07ZM200.354 212.682L200.978 224.665L198.7 224.784L198.076 212.8L200.354 212.682ZM202.889 228.032L202.603 222.555L203.579 222.504C203.816 222.262 204.013 221.978 204.168 221.652C204.328 221.325 204.457 220.94 204.554 220.497C204.656 220.054 204.733 219.539 204.786 218.952C204.839 218.36 204.877 217.685 204.9 216.928L205.042 212.438L213.187 212.014L213.706 221.977L215.547 221.881L215.832 227.358L213.554 227.476L213.374 224.02L205.018 224.455L205.198 227.911L202.889 228.032ZM206.075 222.374L211.427 222.095L211.013 214.129L207.237 214.326L207.116 216.812C207.062 218.077 206.968 219.177 206.834 220.113C206.7 221.043 206.447 221.796 206.075 222.374ZM222.773 223.773C221.649 223.832 220.656 223.625 219.791 223.154C218.927 222.683 218.239 221.996 217.728 221.094C217.217 220.193 216.929 219.123 216.865 217.885C216.8 216.642 216.975 215.543 217.39 214.588C217.804 213.632 218.417 212.876 219.227 212.317C220.038 211.759 221.005 211.45 222.128 211.392C223.252 211.333 224.246 211.54 225.11 212.011C225.974 212.482 226.662 213.171 227.173 214.078C227.685 214.985 227.973 216.06 228.037 217.303C228.102 218.541 227.927 219.635 227.512 220.585C227.097 221.535 226.485 222.289 225.674 222.848C224.863 223.406 223.896 223.715 222.773 223.773ZM222.679 221.815C223.407 221.777 224 221.553 224.459 221.143C224.917 220.733 225.244 220.202 225.44 219.551C225.641 218.899 225.721 218.188 225.681 217.418C225.641 216.654 225.487 215.958 225.22 215.33C224.958 214.697 224.577 214.198 224.078 213.833C223.579 213.467 222.966 213.304 222.238 213.342C221.504 213.38 220.906 213.607 220.442 214.022C219.984 214.437 219.655 214.973 219.454 215.63C219.259 216.282 219.181 216.99 219.221 217.755C219.261 218.524 219.412 219.223 219.674 219.851C219.942 220.479 220.325 220.972 220.823 221.332C221.327 221.692 221.945 221.853 222.679 221.815ZM230.731 223.117L230.107 211.133L235.077 210.874C236.429 210.804 237.516 211.037 238.336 211.573C239.157 212.104 239.592 212.861 239.643 213.844C239.68 214.546 239.485 215.114 239.059 215.548C238.634 215.982 238.055 216.289 237.324 216.468C237.863 216.502 238.363 216.638 238.823 216.875C239.284 217.106 239.661 217.431 239.954 217.849C240.252 218.266 240.416 218.774 240.448 219.372C240.481 220.006 240.346 220.577 240.044 221.083C239.741 221.584 239.285 221.988 238.675 222.296C238.07 222.599 237.331 222.773 236.457 222.818L230.731 223.117ZM232.822 221.052L236.356 220.868C236.933 220.838 237.378 220.676 237.692 220.384C238.005 220.091 238.149 219.708 238.125 219.235C238.096 218.678 237.909 218.25 237.565 217.95C237.221 217.644 236.76 217.506 236.182 217.536L232.648 217.72L232.822 221.052ZM232.559 216.012L235.36 215.866C235.797 215.843 236.168 215.761 236.474 215.62C236.785 215.479 237.017 215.29 237.172 215.052C237.331 214.809 237.403 214.529 237.386 214.212C237.362 213.749 237.153 213.397 236.76 213.157C236.367 212.916 235.84 212.814 235.179 212.848L232.402 212.993L232.559 216.012ZM246.456 222.564C245.697 222.603 245.003 222.499 244.375 222.25C243.746 221.996 243.238 221.607 242.851 221.085C242.469 220.563 242.258 219.909 242.217 219.123C242.182 218.447 242.283 217.884 242.52 217.433C242.758 216.983 243.091 216.619 243.52 216.341C243.948 216.063 244.432 215.845 244.972 215.686C245.511 215.528 246.063 215.4 246.626 215.303C247.339 215.182 247.918 215.085 248.363 215.009C248.807 214.929 249.128 214.821 249.324 214.685C249.52 214.55 249.611 214.342 249.597 214.061L249.594 214.006C249.558 213.325 249.338 212.807 248.934 212.453C248.535 212.098 247.958 211.94 247.204 211.979C246.419 212.02 245.809 212.227 245.374 212.599C244.945 212.965 244.655 213.364 244.506 213.794L242.287 213.409C242.509 212.667 242.859 212.06 243.335 211.586C243.816 211.108 244.378 210.75 245.023 210.513C245.668 210.271 246.352 210.131 247.074 210.093C247.553 210.068 248.063 210.099 248.605 210.185C249.151 210.266 249.667 210.443 250.15 210.715C250.639 210.987 251.048 211.391 251.379 211.926C251.709 212.457 251.897 213.159 251.942 214.033L252.356 221.991L250.078 222.109L249.993 220.471L249.899 220.476C249.764 220.785 249.553 221.094 249.267 221.401C248.98 221.708 248.605 221.97 248.142 222.187C247.679 222.404 247.117 222.529 246.456 222.564ZM246.866 220.665C247.511 220.631 248.056 220.475 248.5 220.197C248.95 219.918 249.284 219.566 249.501 219.143C249.724 218.714 249.823 218.263 249.799 217.79L249.718 216.245C249.639 216.333 249.482 216.419 249.247 216.504C249.016 216.584 248.751 216.658 248.452 216.726C248.153 216.788 247.862 216.848 247.578 216.904C247.294 216.955 247.056 216.999 246.865 217.035C246.415 217.116 246.007 217.234 245.639 217.388C245.277 217.543 244.991 217.753 244.78 218.02C244.575 218.281 244.483 218.619 244.505 219.036C244.535 219.613 244.771 220.039 245.213 220.313C245.654 220.582 246.205 220.699 246.866 220.665ZM263.001 214.419L263.107 216.44L256.615 216.778L256.51 214.757L263.001 214.419ZM256.906 209.738L257.53 221.721L255.244 221.84L254.62 209.857L256.906 209.738ZM264.372 209.349L264.996 221.333L262.718 221.451L262.094 209.468L264.372 209.349ZM272.958 221.161C271.834 221.219 270.84 221.013 269.976 220.542C269.112 220.07 268.424 219.384 267.913 218.482C267.402 217.58 267.114 216.51 267.05 215.272C266.985 214.029 267.16 212.93 267.575 211.975C267.989 211.02 268.601 210.263 269.412 209.705C270.223 209.146 271.19 208.838 272.313 208.779C273.437 208.721 274.431 208.927 275.295 209.398C276.159 209.87 276.847 210.559 277.358 211.466C277.87 212.373 278.158 213.448 278.222 214.691C278.287 215.929 278.112 217.023 277.697 217.973C277.282 218.923 276.669 219.677 275.859 220.235C275.048 220.794 274.081 221.102 272.958 221.161ZM272.864 219.202C273.592 219.164 274.185 218.94 274.644 218.531C275.102 218.121 275.429 217.59 275.625 216.938C275.825 216.286 275.906 215.575 275.866 214.806C275.826 214.041 275.672 213.345 275.405 212.717C275.143 212.084 274.762 211.585 274.263 211.22C273.764 210.855 273.151 210.691 272.423 210.729C271.689 210.767 271.091 210.994 270.627 211.409C270.169 211.824 269.84 212.36 269.639 213.018C269.444 213.669 269.366 214.377 269.406 215.142C269.446 215.912 269.597 216.611 269.859 217.238C270.126 217.866 270.509 218.36 271.008 218.72C271.512 219.08 272.13 219.24 272.864 219.202Z" fill="white"/>
</g>
<defs>
<filter id="filter0_d_1296_344" x="-5.52372" y="66.6466" width="399.33" height="181.349" filterUnits="userSpaceOnUse" color-interpolation-filters="sRGB">
<feFlood flood-opacity="0" result="BackgroundImageFix"/>
<feColorMatrix in="SourceAlpha" type="matrix" values="0 0 0 0 0 0 0 0 0 0 0 0 0 0 0 0 0 0 127 0" result="hardAlpha"/>
<feOffset dy="10.3605"/>
<feGaussianBlur stdDeviation="10.3605"/>
<feComposite in2="hardAlpha" operator="out"/>
<feColorMatrix type="matrix" values="0 0 0 0 0.286275 0 0 0 0 0.129412 0 0 0 0 0.360784 0 0 0 0.25 0"/>
<feBlend mode="normal" in2="BackgroundImageFix" result="effect1_dropShadow_1296_344"/>
<feBlend mode="normal" in="SourceGraphic" in2="effect1_dropShadow_1296_344" result="shape"/>
</filter>
<filter id="filter1_d_1296_344" x="31.374" y="-5.36056" width="325.424" height="159.598" filterUnits="userSpaceOnUse" color-interpolation-filters="sRGB">
<feFlood flood-opacity="0" result="BackgroundImageFix"/>
<feColorMatrix in="SourceAlpha" type="matrix" values="0 0 0 0 0 0 0 0 0 0 0 0 0 0 0 0 0 0 127 0" result="hardAlpha"/>
<feOffset dy="10.3605"/>
<feGaussianBlur stdDeviation="10.3605"/>
<feComposite in2="hardAlpha" operator="out"/>
<feColorMatrix type="matrix" values="0 0 0 0 0.286275 0 0 0 0 0.129412 0 0 0 0 0.360784 0 0 0 0.25 0"/>
<feBlend mode="normal" in2="BackgroundImageFix" result="effect1_dropShadow_1296_344"/>
<feBlend mode="normal" in="SourceGraphic" in2="effect1_dropShadow_1296_344" result="shape"/>
</filter>
<filter id="filter2_d_1296_344" x="37.7277" y="171.649" width="313.069" height="112.432" filterUnits="userSpaceOnUse" color-interpolation-filters="sRGB">
<feFlood flood-opacity="0" result="BackgroundImageFix"/>
<feColorMatrix in="SourceAlpha" type="matrix" values="0 0 0 0 0 0 0 0 0 0 0 0 0 0 0 0 0 0 127 0" result="hardAlpha"/>
<feOffset dy="10.3605"/>
<feGaussianBlur stdDeviation="10.3605"/>
<feComposite in2="hardAlpha" operator="out"/>
<feColorMatrix type="matrix" values="0 0 0 0 0.286275 0 0 0 0 0.129412 0 0 0 0 0.360784 0 0 0 0.25 0"/>
<feBlend mode="normal" in2="BackgroundImageFix" result="effect1_dropShadow_1296_344"/>
<feBlend mode="normal" in="SourceGraphic" in2="effect1_dropShadow_1296_344" result="shape"/>
</filter>
<linearGradient id="paint0_linear_1296_344" x1="307.464" y1="101.776" x2="288.755" y2="29.9779" gradientUnits="userSpaceOnUse">
<stop stop-color="white" stop-opacity="0"/>
<stop offset="1" stop-color="white"/>
</linearGradient>
<linearGradient id="paint1_linear_1296_344" x1="270.841" y1="92.3037" x2="247.915" y2="23.2407" gradientUnits="userSpaceOnUse">
<stop stop-color="white" stop-opacity="0"/>
<stop offset="1" stop-color="white"/>
</linearGradient>
<linearGradient id="paint2_linear_1296_344" x1="269.925" y1="220.765" x2="246.374" y2="152.178" gradientUnits="userSpaceOnUse">
<stop stop-color="white" stop-opacity="0"/>
<stop offset="1" stop-color="white"/>
</linearGradient>
</defs>
</svg>
