<svg width="48" height="48" viewBox="0 0 48 48" fill="none" xmlns="http://www.w3.org/2000/svg">
<path d="M6 35.5C6.21486 38.1051 7.9733 39.9763 10.1612 40.1194C12.976 40.3036 17.5016 40.5 24 40.5C30.4984 40.5 35.0241 40.3036 37.8388 40.1194C40.0268 39.9763 41.7852 38.1052 42 35.5M28 17.0106C28 17.0106 26.4 15.7861 24 15.7861M24 15.7861C22 15.7861 20 17.0106 20 18.6433C20 22.7249 28 20.2759 28 24.3576C28 25.9902 26 27.2147 24 27.2147M24 15.7861V13.5M24 27.2147C21.6 27.2147 20 25.9902 20 25.9902M24 27.2147V29.4996M37 21.5H36M12 21.5H11M3.39786 30.7097C3.64378 33.2055 5.65642 34.9983 8.16062 35.1354C11.3823 35.3118 16.5622 35.5 24 35.5C31.4378 35.5 36.6177 35.3118 39.8394 35.1354C42.3436 34.9983 44.3562 33.2056 44.6021 30.7097C44.8138 28.5613 45 25.5271 45 21.5C45 17.4729 44.8138 14.4387 44.6021 12.2903C44.3562 9.79445 42.3436 8.00168 39.8394 7.86457C36.6177 7.68817 31.4378 7.5 24 7.5C16.5622 7.5 11.3823 7.68817 8.16062 7.86457C5.65642 8.00168 3.64378 9.79445 3.39786 12.2903C3.18617 14.4387 3 17.4729 3 21.5C3 25.5271 3.18617 28.5613 3.39786 30.7097Z" stroke="#644FE4" stroke-width="3" stroke-linecap="round" stroke-linejoin="round"/>
</svg>
