<svg width="62" height="34" viewBox="0 0 62 34" fill="none" xmlns="http://www.w3.org/2000/svg">
<path d="M49.4048 16.9244C49.4207 20.6484 48.281 24.1032 46.3348 26.9157C44.3727 29.7565 41.5904 31.9408 38.3528 33.0932C36.7011 33.6812 34.9338 34 33.0941 34C29.4033 34 25.9458 32.6965 23.1704 30.4744C21.9084 29.466 20.7891 28.2688 19.8511 26.9157C18.5302 25.0076 17.5764 22.7973 17.1074 20.3816C16.5613 17.6045 13.9785 15.6658 11.1871 16.1239C8.74472 16.5254 6.88458 18.7239 6.80075 21.2978C6.70106 24.3748 9.07324 26.9133 12.0073 26.9133H12.619C14.81 26.9133 16.9148 27.898 18.3105 29.6597C19.6064 31.2962 21.1448 32.7107 22.8622 33.8442C22.9302 33.889 22.9008 33.9976 22.8192 33.9976H12.1886C5.59994 33.9976 0.101105 28.5451 0.0014142 21.678C-0.100542 14.6905 5.32352 8.97112 12.005 8.97112C17.6829 8.97112 22.6289 13.1745 23.7662 18.9671C23.7662 18.9671 23.7662 18.9718 23.7685 18.9742C24.7428 23.9899 29.3104 27.5013 34.3176 26.8307C38.8716 26.2214 42.3993 22.2164 42.5964 17.4345C42.832 11.7671 38.4751 7.08197 33.0918 7.08197C32.317 7.08197 31.558 7.17643 30.8239 7.36298C28.4879 7.9557 26.0365 7.10794 24.6 5.09836L23.4037 3.42646C23.3765 3.38868 23.3833 3.33437 23.4219 3.30603C26.2449 1.14059 29.5959 -0.00470833 33.1145 1.4548e-05C42.0368 0.0118217 49.3663 7.6251 49.4048 16.9244Z" fill="white"/>
<path d="M61.9998 23.6663C62.0338 29.3928 57.4639 34 51.9696 34H43.3826C43.3011 34 43.2716 33.8914 43.3396 33.8465C45.3606 32.5076 47.1256 30.7837 48.5371 28.7765C49.3505 27.6218 50.626 26.9157 51.9991 26.9157H52.0489C53.7822 26.9157 55.248 25.4374 55.1982 23.6309C55.1778 22.8894 54.9445 22.181 54.4868 21.6804C54.3894 21.5741 54.2874 21.4773 54.1786 21.3923C52.9665 20.4052 52.2075 18.9364 52.2324 17.333C52.2324 17.222 52.2347 17.111 52.2347 17.0024C52.2347 15.8287 52.1373 14.6787 51.9492 13.5594C51.9401 13.5074 51.9787 13.4602 52.0285 13.4602C52.1577 13.4602 52.3774 13.4602 52.4454 13.4649C57.7199 13.6326 61.9636 18.1382 61.9953 23.6687L61.9998 23.6663Z" fill="white"/>
</svg>
