<svg width="48" height="48" viewBox="0 0 48 48" fill="none" xmlns="http://www.w3.org/2000/svg">
<path d="M17 19H9V40H17V19Z" stroke="#644FE4" stroke-width="3" stroke-miterlimit="10"/>
<path d="M40 19H32V40H40V19Z" stroke="#644FE4" stroke-width="3" stroke-miterlimit="10"/>
<path d="M4.40147 42.9434L3 45H46L44.5985 42.9434C43.3501 41.1101 41.1731 40 38.8328 40H10.1672C7.82691 40 5.64987 41.1132 4.40147 42.9434Z" stroke="#644FE4" stroke-width="3" stroke-linecap="round" stroke-linejoin="round"/>
<path d="M5.78378 15.934L5 14H45L44.2162 15.934C43.4662 17.7799 41.5709 19 39.4527 19H10.5473C8.42905 19 6.53041 17.7799 5.78378 15.934Z" stroke="#644FE4" stroke-width="3" stroke-linecap="round" stroke-linejoin="round"/>
<path d="M25.0017 4L5 14H45L25.0017 4Z" stroke="#644FE4" stroke-width="3" stroke-linecap="round" stroke-linejoin="round"/>
</svg>
