<svg width="400" height="615" viewBox="0 0 400 615" fill="none" xmlns="http://www.w3.org/2000/svg">
<g opacity="0.2">
<path d="M938.691 306.133C938.992 373.494 917.339 435.985 880.361 486.857C843.081 538.242 790.218 577.753 728.702 598.598C697.32 609.234 663.743 615 628.788 615C558.662 615 492.971 591.422 440.237 551.228C416.259 532.989 394.993 511.333 377.171 486.857C352.074 452.344 333.951 412.364 325.04 368.667C314.666 318.435 265.591 283.367 212.555 291.653C166.15 298.915 130.807 338.682 129.214 385.24C127.32 440.897 172.392 486.815 228.139 486.815H239.762C281.389 486.815 321.381 504.626 347.899 536.491C372.522 566.092 401.752 591.678 434.382 612.181C435.674 612.993 435.114 614.957 433.565 614.957H231.583C106.399 614.957 1.92099 516.33 0.0268698 392.117C-1.9103 265.726 101.147 162.272 228.096 162.272C335.974 162.272 429.948 238.303 451.559 343.081C451.559 343.081 451.559 343.167 451.602 343.209C470.112 433.934 556.897 497.45 652.034 485.32C738.56 474.299 805.586 401.856 809.331 315.36C813.808 212.845 731.027 128.1 628.745 128.1C614.022 128.1 599.601 129.809 585.653 133.183C541.271 143.905 494.693 128.57 467.4 92.2203L444.671 61.9786C444.154 61.2952 444.283 60.3128 445.015 59.8002C498.653 20.6312 562.321 -0.0851654 629.175 0.000263147C798.699 0.213834 937.959 137.925 938.691 306.133Z" fill="#C9D2E7"/>
<path d="M1178 428.082C1178.64 531.665 1091.81 615 987.422 615H824.27C822.72 615 822.161 613.035 823.452 612.224C861.851 588.005 895.386 556.823 922.205 520.516C937.659 499.629 961.895 486.857 987.982 486.857H988.929C1021.86 486.857 1049.71 460.118 1048.77 427.442C1048.38 414.03 1043.94 401.215 1035.25 392.16C1033.4 390.238 1031.46 388.486 1029.39 386.949C1006.36 369.094 991.942 342.526 992.416 313.523C992.416 311.515 992.459 309.508 992.459 307.543C992.459 286.314 990.608 265.512 987.035 245.265C986.863 244.326 987.594 243.471 988.542 243.471C990.995 243.471 995.171 243.471 996.462 243.557C1096.68 246.59 1177.31 328.088 1177.91 428.125L1178 428.082Z" fill="#C9D2E7"/>
</g>
</svg>
