<svg width="330" height="615" viewBox="0 0 330 615" fill="none" xmlns="http://www.w3.org/2000/svg">
<path opacity="0.2" d="M329.691 306.133C329.992 373.494 308.339 435.985 271.361 486.857C234.081 538.242 181.218 577.753 119.702 598.598C88.3203 609.234 54.7429 615 19.7878 615C-50.3376 615 -116.029 591.422 -168.763 551.228C-192.741 532.989 -214.007 511.333 -231.829 486.857C-256.926 452.344 -275.049 412.364 -283.96 368.667C-294.334 318.435 -343.409 283.367 -396.445 291.653C-442.85 298.915 -478.193 338.682 -479.786 385.24C-481.68 440.897 -436.608 486.815 -380.861 486.815H-369.238C-327.611 486.815 -287.619 504.626 -261.101 536.491C-236.478 566.092 -207.248 591.678 -174.618 612.181C-173.326 612.993 -173.886 614.957 -175.435 614.957H-377.417C-502.601 614.957 -607.079 516.33 -608.973 392.117C-610.91 265.726 -507.853 162.272 -380.904 162.272C-273.026 162.272 -179.052 238.303 -157.441 343.081C-157.441 343.081 -157.441 343.167 -157.398 343.209C-138.888 433.934 -52.1027 497.45 43.0337 485.32C129.56 474.299 196.586 401.856 200.331 315.36C204.808 212.845 122.027 128.1 19.7447 128.1C5.02222 128.1 -9.39899 129.809 -23.3466 133.183C-67.7292 143.905 -114.307 128.57 -141.6 92.2203L-164.329 61.9786C-164.846 61.2952 -164.717 60.3128 -163.985 59.8002C-110.347 20.6312 -46.6786 -0.0851654 20.1751 0.000263147C189.699 0.213834 328.959 137.925 329.691 306.133Z" fill="#C9D2E7"/>
</svg>
