<svg width="160" height="30" viewBox="0 0 160 30" fill="none" xmlns="http://www.w3.org/2000/svg">
<path d="M62.9483 24.448C61.801 24.448 60.7044 24.3124 59.6568 24.0412C58.6092 23.77 57.7695 23.4284 57.1392 23.0165L58.4115 20.274C59.0435 20.6374 59.7785 20.937 60.6183 21.1765C61.458 21.4159 62.2843 21.5348 63.0987 21.5348C63.9959 21.5348 64.6329 21.4276 65.0063 21.2133C65.3798 20.999 65.5673 20.7026 65.5673 20.3243C65.5673 20.0112 65.422 19.7768 65.1314 19.6194C64.8408 19.4637 64.4589 19.3431 63.9841 19.2611C63.511 19.179 62.9821 19.097 62.4009 19.0133C61.8196 18.9312 61.2417 18.8157 60.6673 18.6667C60.0945 18.5177 59.5622 18.3084 59.0722 18.0372C58.5822 17.7659 58.1902 17.3909 57.8996 16.9137C57.6089 16.4365 57.4636 15.8187 57.4636 15.0603C57.4636 14.2198 57.7137 13.4747 58.2122 12.8251C58.7106 12.1738 59.4169 11.6682 60.331 11.3048C61.2451 10.9432 62.3502 10.7607 63.6478 10.7607C64.5789 10.7607 65.5133 10.8645 66.4527 11.0688C67.3922 11.2747 68.1863 11.5593 68.8335 11.921L67.5121 14.6635C66.8802 14.3018 66.2364 14.0457 65.5791 13.8983C64.9219 13.7493 64.295 13.6756 63.6968 13.6756C62.7996 13.6756 62.1508 13.7912 61.752 14.0222C61.3533 14.2533 61.1539 14.5496 61.1539 14.9113C61.1539 15.2411 61.3043 15.4922 61.6033 15.6647C61.9024 15.8372 62.2927 15.9661 62.776 16.0481C63.2575 16.1302 63.7898 16.2122 64.371 16.2959C64.9523 16.3779 65.5268 16.4935 66.0911 16.6425C66.6555 16.7898 67.1843 17.0008 67.6743 17.272C68.1644 17.5433 68.5547 17.9183 68.847 18.3955C69.1376 18.8726 69.2829 19.4905 69.2829 20.2489C69.2829 21.0559 69.0329 21.7775 68.5344 22.4104C68.0359 23.045 67.3161 23.5422 66.3784 23.9056C65.4389 24.2672 64.2967 24.4497 62.95 24.4497L62.9483 24.448Z" fill="#020D34"/>
<path d="M70.4403 17.6052C70.4403 13.6572 73.3618 10.7607 77.5066 10.7607C81.6514 10.7607 84.4934 13.6555 84.4934 17.6052V18.7102H74.1864C74.5581 20.4214 75.8608 21.2635 77.5066 21.2635C78.7823 21.2635 79.7116 20.9471 80.2962 20.1585H84.0676C83.1383 22.7386 80.6933 24.4497 77.5066 24.4497C73.3618 24.4497 70.4403 21.5549 70.4403 17.6052ZM80.7744 16.2105C80.2962 14.6836 79.0476 13.9469 77.5066 13.9469C75.9656 13.9469 74.7169 14.7104 74.2658 16.2105H80.7744Z" fill="#020D34"/>
<path d="M86.3588 17.3675C86.3588 12.9976 88.9626 10.7607 92.8404 10.7607C96.7182 10.7607 99.322 12.9724 99.322 17.3675V24.1065H95.7365V17.3675C95.7365 15.1038 94.5672 14.0775 92.8404 14.0775C91.1135 14.0775 89.9443 15.1038 89.9443 17.3675V24.1065H86.3588V17.3675Z" fill="#020D34"/>
<path d="M101.018 17.4461C101.018 12.9708 104.393 10.7607 107.473 10.7607C109.2 10.7607 110.634 11.4455 111.511 12.7615V5.41635H115.097V17.4729C115.097 21.7893 112.175 24.448 108.11 24.448C104.045 24.448 101.017 21.6319 101.017 17.4461H101.018ZM111.511 17.6035C111.511 15.5241 110.129 14.0758 108.085 14.0758C106.04 14.0758 104.658 15.5241 104.658 17.6035C104.658 19.683 106.04 21.1313 108.085 21.1313C110.129 21.1313 111.511 19.683 111.511 17.6035Z" fill="#020D34"/>
<path d="M117.491 25.4493H121.077C121.528 26.4756 122.405 26.9226 123.839 26.9226C125.779 26.9226 126.761 26.0018 126.761 23.7633V22.315C125.99 23.5791 124.742 24.2622 123.175 24.2622C120.306 24.2622 117.385 22.3669 117.385 17.6554V11.1006H120.97V17.6554C120.97 19.9191 122.139 20.9454 123.866 20.9454C125.593 20.9454 126.762 19.8655 126.762 17.6554V11.1006H130.348V23.6561C130.348 28.1834 127.426 30 123.839 30C120.732 30 118.18 28.5785 117.491 25.4459V25.4493Z" fill="#020D34"/>
<path d="M133.195 5.41635H136.78V16.6827L141.456 11.1023H145.972L140.234 17.4729L146.185 24.1065H141.589L136.78 18.3687V24.1065H133.195V5.41635Z" fill="#020D34"/>
<path d="M145.868 17.6052C145.868 13.6572 148.789 10.7607 152.934 10.7607C157.079 10.7607 160 13.6555 160 17.6052C160 21.5549 157.079 24.4497 152.934 24.4497C148.789 24.4497 145.868 21.5549 145.868 17.6052ZM156.36 17.6052C156.36 15.5257 154.978 14.0775 152.934 14.0775C150.889 14.0775 149.507 15.5257 149.507 17.6052C149.507 19.6847 150.889 21.1329 152.934 21.1329C154.978 21.1329 156.36 19.6847 156.36 17.6052Z" fill="#020D34"/>
<path d="M36.8445 11.9997C36.8563 14.64 36.0064 17.0895 34.555 19.0836C33.0917 21.0978 31.0168 22.6465 28.6022 23.4636C27.3704 23.8805 26.0525 24.1065 24.6805 24.1065C21.928 24.1065 19.3495 23.1823 17.2797 21.6068C16.3385 20.8918 15.5038 20.043 14.8043 19.0836C13.8192 17.7308 13.1079 16.1636 12.7581 14.4508C12.3509 12.4819 10.4247 11.1073 8.34299 11.4321C6.52152 11.7167 5.13429 13.2755 5.07178 15.1005C4.99743 17.2821 6.76652 19.0819 8.95465 19.0819H9.41087C11.0448 19.0819 12.6145 19.7801 13.6553 21.0291C14.6218 22.1894 15.7691 23.1923 17.0499 23.996C17.1006 24.0278 17.0786 24.1048 17.0178 24.1048H9.08983C4.17625 24.1048 0.0754005 20.2389 0.00105466 15.37C-0.0749808 10.4158 3.97011 6.36065 8.95296 6.36065C13.1873 6.36065 16.8759 9.34089 17.7241 13.4479C17.7241 13.4479 17.7241 13.4513 17.7258 13.453C18.4523 17.0092 21.8587 19.4988 25.5929 19.0233C28.9892 18.5914 31.62 15.7518 31.767 12.3613C31.9427 8.34301 28.6935 5.02122 24.6788 5.02122C24.1009 5.02122 23.5349 5.08819 22.9874 5.22046C21.2454 5.64071 19.4171 5.03963 18.3459 3.61481L17.4537 2.42941C17.4335 2.40262 17.4385 2.36411 17.4672 2.34402C19.5726 0.808694 22.0716 -0.00333827 24.6957 1.03147e-05C31.3496 0.00838178 36.8157 5.4063 36.8445 11.9997Z" fill="#155FEF"/>
<path d="M46.2374 16.7798C46.2628 20.8399 42.8547 24.1065 38.7572 24.1065H32.3533C32.2925 24.1065 32.2705 24.0295 32.3212 23.9977C33.8284 23.0483 35.1447 21.8261 36.1974 20.403C36.8039 19.5842 37.7552 19.0836 38.7792 19.0836H38.8164C40.109 19.0836 41.2022 18.0355 41.165 16.7547C41.1498 16.2289 40.9758 15.7266 40.6344 15.3717C40.5618 15.2964 40.4858 15.2277 40.4046 15.1674C39.5007 14.4676 38.9346 13.4262 38.9532 12.2893C38.9532 12.2106 38.9549 12.1319 38.9549 12.0549C38.9549 11.2228 38.8822 10.4074 38.742 9.6138C38.7352 9.57697 38.764 9.54348 38.8011 9.54348C38.8975 9.54348 39.0614 9.54348 39.112 9.54683C43.0456 9.66571 46.2104 12.8603 46.234 16.7815L46.2374 16.7798Z" fill="#155FEF"/>
</svg>
