<svg width="229" height="43" viewBox="0 0 229 43" fill="none" xmlns="http://www.w3.org/2000/svg">
<path d="M90.0948 35.0422C88.4527 35.0422 86.8832 34.8478 85.3838 34.459C83.8845 34.0703 82.6825 33.5807 81.7805 32.9903L83.6015 29.0594C84.506 29.5802 85.558 30.0098 86.7599 30.3529C87.9618 30.6961 89.1444 30.8665 90.31 30.8665C91.5942 30.8665 92.5059 30.7129 93.0403 30.4057C93.5748 30.0986 93.8432 29.6738 93.8432 29.1314C93.8432 28.6827 93.6353 28.3467 93.2193 28.1211C92.8033 27.8979 92.2568 27.7251 91.5772 27.6076C90.9001 27.49 90.1432 27.3724 89.3112 27.2524C88.4793 27.1348 87.6523 26.9692 86.83 26.7556C86.0102 26.542 85.2484 26.2421 84.5471 25.8533C83.8458 25.4645 83.2847 24.927 82.8688 24.243C82.4528 23.5591 82.2448 22.6735 82.2448 21.5864C82.2448 20.3817 82.6027 19.3138 83.3161 18.3826C84.0296 17.4491 85.0404 16.7244 86.3487 16.2036C87.6571 15.6852 89.2387 15.4237 91.096 15.4237C92.4285 15.4237 93.7658 15.5725 95.1104 15.8652C96.455 16.1604 97.5917 16.5684 98.5179 17.0867L96.6267 21.0176C95.7223 20.4993 94.8009 20.1321 93.8602 19.9209C92.9194 19.7073 92.0222 19.6017 91.1661 19.6017C89.882 19.6017 88.9533 19.7673 88.3826 20.0985C87.8119 20.4297 87.5265 20.8545 87.5265 21.3728C87.5265 21.8456 87.7417 22.2056 88.1698 22.4527C88.5978 22.6999 89.1565 22.8847 89.8481 23.0023C90.5373 23.1199 91.2991 23.2375 92.131 23.3575C92.9629 23.4751 93.7852 23.6406 94.5929 23.8542C95.4007 24.0654 96.1576 24.3678 96.8589 24.7566C97.5602 25.1453 98.1189 25.6829 98.5373 26.3668C98.9532 27.0508 99.1612 27.9363 99.1612 29.0234C99.1612 30.1802 98.8033 31.2145 98.0899 32.1216C97.3764 33.0311 96.3462 33.7439 95.0041 34.2647C93.6594 34.783 92.0246 35.0446 90.0972 35.0446L90.0948 35.0422Z" fill="white"/>
<path d="M100.818 25.2341C100.818 19.5753 104.999 15.4237 110.931 15.4237C116.864 15.4237 120.931 19.573 120.931 25.2341V26.818H106.179C106.711 29.2706 108.576 30.4777 110.931 30.4777C112.757 30.4777 114.087 30.0242 114.924 28.8939H120.322C118.992 32.592 115.492 35.0446 110.931 35.0446C104.999 35.0446 100.818 30.8953 100.818 25.2341ZM115.608 23.2351C114.924 21.0464 113.137 19.9905 110.931 19.9905C108.726 19.9905 106.939 21.0848 106.293 23.2351H115.608Z" fill="white"/>
<path d="M123.601 24.8934C123.601 18.6298 127.328 15.4237 132.878 15.4237C138.428 15.4237 142.155 18.5938 142.155 24.8934V34.5526H137.023V24.8934C137.023 21.6488 135.349 20.1777 132.878 20.1777C130.406 20.1777 128.733 21.6488 128.733 24.8934V34.5526H123.601V24.8934Z" fill="white"/>
<path d="M144.583 25.0061C144.583 18.5914 149.412 15.4237 153.821 15.4237C156.292 15.4237 158.345 16.4052 159.601 18.2914V7.76344H164.732V25.0445C164.732 31.2313 160.551 35.0422 154.732 35.0422C148.914 35.0422 144.58 31.0057 144.58 25.0061H144.583ZM159.601 25.2317C159.601 22.2512 157.622 20.1753 154.696 20.1753C151.77 20.1753 149.792 22.2512 149.792 25.2317C149.792 28.2123 151.77 30.2882 154.696 30.2882C157.622 30.2882 159.601 28.2123 159.601 25.2317Z" fill="white"/>
<path d="M168.159 36.4773H173.291C173.937 37.9484 175.192 38.5891 177.245 38.5891C180.021 38.5891 181.426 37.2692 181.426 34.0607V31.9848C180.323 33.7967 178.536 34.7758 176.294 34.7758C172.188 34.7758 168.007 32.0592 168.007 25.3061V15.9108H173.139V25.3061C173.139 28.5507 174.812 30.0218 177.284 30.0218C179.755 30.0218 181.429 28.4739 181.429 25.3061V15.9108H186.56V33.9071C186.56 40.3962 182.379 43 177.245 43C172.798 43 169.146 40.9626 168.159 36.4725V36.4773Z" fill="white"/>
<path d="M190.635 7.76344H195.767V23.9118L202.459 15.9132H208.923L200.71 25.0445L209.228 34.5526H202.65L195.767 26.3285V34.5526H190.635V7.76344Z" fill="white"/>
<path d="M208.773 25.2341C208.773 19.5753 212.954 15.4237 218.886 15.4237C224.819 15.4237 229 19.573 229 25.2341C229 30.8953 224.819 35.0446 218.886 35.0446C212.954 35.0446 208.773 30.8953 208.773 25.2341ZM223.791 25.2341C223.791 22.2536 221.813 20.1777 218.886 20.1777C215.96 20.1777 213.982 22.2536 213.982 25.2341C213.982 28.2147 215.96 30.2906 218.886 30.2906C221.813 30.2906 223.791 28.2147 223.791 25.2341Z" fill="white"/>
<path d="M52.7336 17.1995C52.7506 20.984 51.5341 24.495 49.4568 27.3532C47.3625 30.2402 44.3927 32.46 40.9369 33.6311C39.174 34.2287 37.2876 34.5526 35.3239 34.5526C31.3844 34.5526 27.694 33.2279 24.7316 30.9697C23.3845 29.945 22.1899 28.7283 21.1887 27.3532C19.7788 25.4141 18.7607 23.1679 18.2601 20.7129C17.6772 17.8907 14.9203 15.9204 11.9409 16.386C9.33393 16.794 7.34846 19.0282 7.25898 21.644C7.15257 24.771 9.68459 27.3508 12.8163 27.3508H13.4693C15.8078 27.3508 18.0545 28.3515 19.5442 30.1418C20.9275 31.8048 22.5696 33.2423 24.4027 34.3942C24.4752 34.4398 24.4438 34.5502 24.3567 34.5502H13.0098C5.97725 34.5502 0.107917 29.0091 0.00150949 22.0304C-0.107316 14.9293 5.68221 9.11693 12.8139 9.11693C18.8743 9.11693 24.1536 13.3886 25.3676 19.2754C25.3676 19.2754 25.3676 19.2802 25.37 19.2826C26.4099 24.3798 31.2853 27.9483 36.6298 27.2668C41.4907 26.6476 45.2561 22.5775 45.4665 17.7179C45.718 11.9583 41.0675 7.19708 35.3215 7.19708C34.4944 7.19708 33.6843 7.29307 32.9007 7.48266C30.4074 8.08501 27.7908 7.22348 26.2575 5.18123L24.9806 3.48216C24.9516 3.44376 24.9589 3.38856 25 3.35976C28.0133 1.15913 31.59 -0.00478486 35.3457 1.47844e-05C44.8692 0.0120139 52.6925 7.74903 52.7336 17.1995Z" fill="#155FEF"/>
<path d="M66.1773 24.051C66.2136 29.8706 61.3358 34.5526 55.4713 34.5526H46.3057C46.2187 34.5526 46.1872 34.4422 46.2598 34.3966C48.4169 33.0359 50.3008 31.2841 51.8075 29.2442C52.6757 28.0707 54.0372 27.3532 55.5027 27.3532H55.5559C57.4059 27.3532 58.9706 25.8509 58.9174 24.015C58.8956 23.2615 58.6466 22.5415 58.1581 22.0328C58.0541 21.9248 57.9452 21.8264 57.8292 21.74C56.5353 20.7369 55.7252 19.2442 55.7518 17.6147C55.7518 17.5019 55.7542 17.3891 55.7542 17.2787C55.7542 16.086 55.6502 14.9173 55.4495 13.7798C55.4398 13.727 55.4809 13.679 55.5341 13.679C55.672 13.679 55.9066 13.679 55.9791 13.6838C61.609 13.8542 66.1386 18.433 66.1725 24.0534L66.1773 24.051Z" fill="#155FEF"/>
</svg>
